<svg width="485" height="271" viewBox="0 0 485 271" fill="none" xmlns="http://www.w3.org/2000/svg">
<rect x="42.8706" width="1" height="271" fill="#EEEEF7"/>
<rect x="105.871" width="1" height="271" fill="#EEEEF7"/>
<rect x="168.871" width="1" height="271" fill="#EEEEF7"/>
<rect x="231.871" width="1" height="271" fill="#EEEEF7"/>
<rect x="294.871" width="1" height="271" fill="#EEEEF7"/>
<rect x="357.871" width="1" height="271" fill="#EEEEF7"/>
<rect x="420.871" width="1" height="271" fill="#EEEEF7"/>
<rect x="483.871" width="1" height="271" fill="#EEEEF7"/>
<path d="M3.63428 20.9395L2.76709 20.7168L3.19482 16.4688H7.57178V17.4707H4.11475L3.85693 19.791C4.01318 19.7012 4.21045 19.6172 4.44873 19.5391C4.69092 19.4609 4.96826 19.4219 5.28076 19.4219C5.67529 19.4219 6.02881 19.4902 6.34131 19.627C6.65381 19.7598 6.91943 19.9512 7.13818 20.2012C7.36084 20.4512 7.53076 20.752 7.64795 21.1035C7.76514 21.4551 7.82373 21.8477 7.82373 22.2812C7.82373 22.6914 7.76709 23.0684 7.65381 23.4121C7.54443 23.7559 7.37842 24.0566 7.15576 24.3145C6.93311 24.5684 6.65186 24.7656 6.31201 24.9062C5.97607 25.0469 5.57959 25.1172 5.12256 25.1172C4.77881 25.1172 4.45264 25.0703 4.14404 24.9766C3.83936 24.8789 3.56592 24.7324 3.32373 24.5371C3.08545 24.3379 2.89014 24.0918 2.73779 23.7988C2.58936 23.502 2.49561 23.1543 2.45654 22.7559H3.48779C3.53467 23.0762 3.62842 23.3457 3.76904 23.5645C3.90967 23.7832 4.09326 23.9492 4.31982 24.0625C4.55029 24.1719 4.81787 24.2266 5.12256 24.2266C5.38037 24.2266 5.60889 24.1816 5.80811 24.0918C6.00732 24.002 6.17529 23.873 6.31201 23.7051C6.44873 23.5371 6.55225 23.334 6.62256 23.0957C6.69678 22.8574 6.73389 22.5898 6.73389 22.293C6.73389 22.0234 6.69678 21.7734 6.62256 21.543C6.54834 21.3125 6.43701 21.1113 6.28857 20.9395C6.14404 20.7676 5.96631 20.6348 5.75537 20.541C5.54443 20.4434 5.30225 20.3945 5.02881 20.3945C4.66553 20.3945 4.39014 20.4434 4.20264 20.541C4.01904 20.6387 3.82959 20.7715 3.63428 20.9395ZM14.7788 22.1289V23.0195H8.61475V22.3809L12.4351 16.4688H13.3198L12.3706 18.1797L9.84521 22.1289H14.7788ZM13.5894 16.4688V25H12.5054V16.4688H13.5894ZM18.1362 20.9277V21.8184H15.2769V20.9277H18.1362ZM23.2397 16.457H23.3335V17.377H23.2397C22.6655 17.377 22.1851 17.4707 21.7983 17.6582C21.4116 17.8418 21.105 18.0898 20.8784 18.4023C20.6519 18.7109 20.4878 19.0586 20.3862 19.4453C20.2886 19.832 20.2397 20.2246 20.2397 20.623V21.877C20.2397 22.2559 20.2847 22.5918 20.3745 22.8848C20.4644 23.1738 20.5874 23.418 20.7437 23.6172C20.8999 23.8164 21.0757 23.9668 21.271 24.0684C21.4702 24.1699 21.6772 24.2207 21.8921 24.2207C22.1421 24.2207 22.3647 24.1738 22.5601 24.0801C22.7554 23.9824 22.9194 23.8477 23.0522 23.6758C23.189 23.5 23.2925 23.293 23.3628 23.0547C23.4331 22.8164 23.4683 22.5547 23.4683 22.2695C23.4683 22.0156 23.437 21.7715 23.3745 21.5371C23.312 21.2988 23.2163 21.0879 23.0874 20.9043C22.9585 20.7168 22.7964 20.5703 22.6011 20.4648C22.4097 20.3555 22.1812 20.3008 21.9155 20.3008C21.6147 20.3008 21.3335 20.375 21.0718 20.5234C20.814 20.668 20.6011 20.8594 20.4331 21.0977C20.269 21.332 20.1753 21.5879 20.1519 21.8652L19.5776 21.8594C19.6323 21.4219 19.7339 21.0488 19.8823 20.7402C20.0347 20.4277 20.2222 20.1738 20.4448 19.9785C20.6714 19.7793 20.9233 19.6348 21.2007 19.5449C21.4819 19.4512 21.7788 19.4043 22.0913 19.4043C22.5171 19.4043 22.8843 19.4844 23.1929 19.6445C23.5015 19.8047 23.7554 20.0195 23.9546 20.2891C24.1538 20.5547 24.3003 20.8555 24.394 21.1914C24.4917 21.5234 24.5405 21.8652 24.5405 22.2168C24.5405 22.6191 24.4839 22.9961 24.3706 23.3477C24.2573 23.6992 24.0874 24.0078 23.8608 24.2734C23.6382 24.5391 23.3628 24.7461 23.0347 24.8945C22.7065 25.043 22.3257 25.1172 21.8921 25.1172C21.4312 25.1172 21.0288 25.0234 20.6851 24.8359C20.3413 24.6445 20.0562 24.3906 19.8296 24.0742C19.603 23.7578 19.4331 23.4062 19.3198 23.0195C19.2065 22.6328 19.1499 22.2402 19.1499 21.8418V21.332C19.1499 20.7305 19.2104 20.1406 19.3315 19.5625C19.4526 18.9844 19.6616 18.4609 19.9585 17.9922C20.2593 17.5234 20.6753 17.1504 21.2065 16.873C21.7378 16.5957 22.4155 16.457 23.2397 16.457ZM27.2007 20.9395L26.3335 20.7168L26.7612 16.4688H31.1382V17.4707H27.6812L27.4233 19.791C27.5796 19.7012 27.7769 19.6172 28.0151 19.5391C28.2573 19.4609 28.5347 19.4219 28.8472 19.4219C29.2417 19.4219 29.5952 19.4902 29.9077 19.627C30.2202 19.7598 30.4858 19.9512 30.7046 20.2012C30.9272 20.4512 31.0972 20.752 31.2144 21.1035C31.3315 21.4551 31.3901 21.8477 31.3901 22.2812C31.3901 22.6914 31.3335 23.0684 31.2202 23.4121C31.1108 23.7559 30.9448 24.0566 30.7222 24.3145C30.4995 24.5684 30.2183 24.7656 29.8784 24.9062C29.5425 25.0469 29.146 25.1172 28.689 25.1172C28.3452 25.1172 28.019 25.0703 27.7104 24.9766C27.4058 24.8789 27.1323 24.7324 26.8901 24.5371C26.6519 24.3379 26.4565 24.0918 26.3042 23.7988C26.1558 23.502 26.062 23.1543 26.0229 22.7559H27.0542C27.1011 23.0762 27.1948 23.3457 27.3354 23.5645C27.4761 23.7832 27.6597 23.9492 27.8862 24.0625C28.1167 24.1719 28.3843 24.2266 28.689 24.2266C28.9468 24.2266 29.1753 24.1816 29.3745 24.0918C29.5737 24.002 29.7417 23.873 29.8784 23.7051C30.0151 23.5371 30.1187 23.334 30.189 23.0957C30.2632 22.8574 30.3003 22.5898 30.3003 22.293C30.3003 22.0234 30.2632 21.7734 30.189 21.543C30.1147 21.3125 30.0034 21.1113 29.855 20.9395C29.7104 20.7676 29.5327 20.6348 29.3218 20.541C29.1108 20.4434 28.8687 20.3945 28.5952 20.3945C28.2319 20.3945 27.9565 20.4434 27.769 20.541C27.5854 20.6387 27.396 20.7715 27.2007 20.9395Z" fill="#8794BA"/>
<path d="M8.02881 78.1289V79.0195H1.86475V78.3809L5.68506 72.4688H6.56982L5.62061 74.1797L3.09521 78.1289H8.02881ZM6.83936 72.4688V81H5.75537V72.4688H6.83936ZM10.3843 76.9395L9.51709 76.7168L9.94482 72.4688H14.3218V73.4707H10.8647L10.6069 75.791C10.7632 75.7012 10.9604 75.6172 11.1987 75.5391C11.4409 75.4609 11.7183 75.4219 12.0308 75.4219C12.4253 75.4219 12.7788 75.4902 13.0913 75.627C13.4038 75.7598 13.6694 75.9512 13.8882 76.2012C14.1108 76.4512 14.2808 76.752 14.3979 77.1035C14.5151 77.4551 14.5737 77.8477 14.5737 78.2812C14.5737 78.6914 14.5171 79.0684 14.4038 79.4121C14.2944 79.7559 14.1284 80.0566 13.9058 80.3145C13.6831 80.5684 13.4019 80.7656 13.062 80.9062C12.7261 81.0469 12.3296 81.1172 11.8726 81.1172C11.5288 81.1172 11.2026 81.0703 10.894 80.9766C10.5894 80.8789 10.3159 80.7324 10.0737 80.5371C9.83545 80.3379 9.64014 80.0918 9.48779 79.7988C9.33936 79.502 9.24561 79.1543 9.20654 78.7559H10.2378C10.2847 79.0762 10.3784 79.3457 10.519 79.5645C10.6597 79.7832 10.8433 79.9492 11.0698 80.0625C11.3003 80.1719 11.5679 80.2266 11.8726 80.2266C12.1304 80.2266 12.3589 80.1816 12.5581 80.0918C12.7573 80.002 12.9253 79.873 13.062 79.7051C13.1987 79.5371 13.3022 79.334 13.3726 79.0957C13.4468 78.8574 13.4839 78.5898 13.4839 78.293C13.4839 78.0234 13.4468 77.7734 13.3726 77.543C13.2983 77.3125 13.187 77.1113 13.0386 76.9395C12.894 76.7676 12.7163 76.6348 12.5054 76.541C12.2944 76.4434 12.0522 76.3945 11.7788 76.3945C11.4155 76.3945 11.1401 76.4434 10.9526 76.541C10.769 76.6387 10.5796 76.7715 10.3843 76.9395ZM18.1362 76.9277V77.8184H15.2769V76.9277H18.1362ZM20.4507 76.9395L19.5835 76.7168L20.0112 72.4688H24.3882V73.4707H20.9312L20.6733 75.791C20.8296 75.7012 21.0269 75.6172 21.2651 75.5391C21.5073 75.4609 21.7847 75.4219 22.0972 75.4219C22.4917 75.4219 22.8452 75.4902 23.1577 75.627C23.4702 75.7598 23.7358 75.9512 23.9546 76.2012C24.1772 76.4512 24.3472 76.752 24.4644 77.1035C24.5815 77.4551 24.6401 77.8477 24.6401 78.2812C24.6401 78.6914 24.5835 79.0684 24.4702 79.4121C24.3608 79.7559 24.1948 80.0566 23.9722 80.3145C23.7495 80.5684 23.4683 80.7656 23.1284 80.9062C22.7925 81.0469 22.396 81.1172 21.939 81.1172C21.5952 81.1172 21.269 81.0703 20.9604 80.9766C20.6558 80.8789 20.3823 80.7324 20.1401 80.5371C19.9019 80.3379 19.7065 80.0918 19.5542 79.7988C19.4058 79.502 19.312 79.1543 19.2729 78.7559H20.3042C20.3511 79.0762 20.4448 79.3457 20.5854 79.5645C20.7261 79.7832 20.9097 79.9492 21.1362 80.0625C21.3667 80.1719 21.6343 80.2266 21.939 80.2266C22.1968 80.2266 22.4253 80.1816 22.6245 80.0918C22.8237 80.002 22.9917 79.873 23.1284 79.7051C23.2651 79.5371 23.3687 79.334 23.439 79.0957C23.5132 78.8574 23.5503 78.5898 23.5503 78.293C23.5503 78.0234 23.5132 77.7734 23.439 77.543C23.3647 77.3125 23.2534 77.1113 23.105 76.9395C22.9604 76.7676 22.7827 76.6348 22.5718 76.541C22.3608 76.4434 22.1187 76.3945 21.8452 76.3945C21.4819 76.3945 21.2065 76.4434 21.019 76.541C20.8354 76.6387 20.646 76.7715 20.4507 76.9395ZM31.5952 78.1289V79.0195H25.4312V78.3809L29.2515 72.4688H30.1362L29.187 74.1797L26.6616 78.1289H31.5952ZM30.4058 72.4688V81H29.3218V72.4688H30.4058Z" fill="#8794BA"/>
<path d="M3.84521 132.201H4.61865C4.99756 132.201 5.31006 132.139 5.55615 132.014C5.80615 131.885 5.9917 131.711 6.11279 131.492C6.23779 131.27 6.30029 131.02 6.30029 130.742C6.30029 130.414 6.24561 130.139 6.13623 129.916C6.02686 129.693 5.86279 129.525 5.64404 129.412C5.42529 129.299 5.14795 129.242 4.81201 129.242C4.50732 129.242 4.23779 129.303 4.00342 129.424C3.77295 129.541 3.59131 129.709 3.4585 129.928C3.32959 130.146 3.26514 130.404 3.26514 130.701H2.18115C2.18115 130.268 2.29053 129.873 2.50928 129.518C2.72803 129.162 3.03467 128.879 3.4292 128.668C3.82764 128.457 4.28857 128.352 4.81201 128.352C5.32764 128.352 5.77881 128.443 6.16553 128.627C6.55225 128.807 6.85303 129.076 7.06787 129.436C7.28271 129.791 7.39014 130.234 7.39014 130.766C7.39014 130.98 7.33936 131.211 7.23779 131.457C7.14014 131.699 6.98584 131.926 6.7749 132.137C6.56787 132.348 6.29834 132.521 5.96631 132.658C5.63428 132.791 5.23584 132.857 4.771 132.857H3.84521V132.201ZM3.84521 133.092V132.441H4.771C5.31396 132.441 5.76318 132.506 6.11865 132.635C6.47412 132.764 6.75342 132.936 6.95654 133.15C7.16357 133.365 7.30811 133.602 7.39014 133.859C7.47607 134.113 7.51904 134.367 7.51904 134.621C7.51904 135.02 7.45068 135.373 7.31396 135.682C7.18115 135.99 6.9917 136.252 6.74561 136.467C6.50342 136.682 6.21826 136.844 5.89014 136.953C5.56201 137.062 5.20459 137.117 4.81787 137.117C4.44678 137.117 4.09717 137.064 3.76904 136.959C3.44482 136.854 3.15771 136.701 2.90771 136.502C2.65771 136.299 2.4624 136.051 2.32178 135.758C2.18115 135.461 2.11084 135.123 2.11084 134.744H3.19482C3.19482 135.041 3.25928 135.301 3.38818 135.523C3.521 135.746 3.7085 135.92 3.95068 136.045C4.19678 136.166 4.48584 136.227 4.81787 136.227C5.1499 136.227 5.43506 136.17 5.67334 136.057C5.91553 135.939 6.10107 135.764 6.22998 135.529C6.36279 135.295 6.4292 135 6.4292 134.645C6.4292 134.289 6.35498 133.998 6.20654 133.771C6.05811 133.541 5.84717 133.371 5.57373 133.262C5.3042 133.148 4.98584 133.092 4.61865 133.092H3.84521ZM10.3843 132.939L9.51709 132.717L9.94482 128.469H14.3218V129.471H10.8647L10.6069 131.791C10.7632 131.701 10.9604 131.617 11.1987 131.539C11.4409 131.461 11.7183 131.422 12.0308 131.422C12.4253 131.422 12.7788 131.49 13.0913 131.627C13.4038 131.76 13.6694 131.951 13.8882 132.201C14.1108 132.451 14.2808 132.752 14.3979 133.104C14.5151 133.455 14.5737 133.848 14.5737 134.281C14.5737 134.691 14.5171 135.068 14.4038 135.412C14.2944 135.756 14.1284 136.057 13.9058 136.314C13.6831 136.568 13.4019 136.766 13.062 136.906C12.7261 137.047 12.3296 137.117 11.8726 137.117C11.5288 137.117 11.2026 137.07 10.894 136.977C10.5894 136.879 10.3159 136.732 10.0737 136.537C9.83545 136.338 9.64014 136.092 9.48779 135.799C9.33936 135.502 9.24561 135.154 9.20654 134.756H10.2378C10.2847 135.076 10.3784 135.346 10.519 135.564C10.6597 135.783 10.8433 135.949 11.0698 136.062C11.3003 136.172 11.5679 136.227 11.8726 136.227C12.1304 136.227 12.3589 136.182 12.5581 136.092C12.7573 136.002 12.9253 135.873 13.062 135.705C13.1987 135.537 13.3022 135.334 13.3726 135.096C13.4468 134.857 13.4839 134.59 13.4839 134.293C13.4839 134.023 13.4468 133.773 13.3726 133.543C13.2983 133.312 13.187 133.111 13.0386 132.939C12.894 132.768 12.7163 132.635 12.5054 132.541C12.2944 132.443 12.0522 132.395 11.7788 132.395C11.4155 132.395 11.1401 132.443 10.9526 132.541C10.769 132.639 10.5796 132.771 10.3843 132.939ZM18.1362 132.928V133.818H15.2769V132.928H18.1362ZM24.8452 134.129V135.02H18.6812V134.381L22.5015 128.469H23.3862L22.437 130.18L19.9116 134.129H24.8452ZM23.6558 128.469V137H22.5718V128.469H23.6558ZM31.5952 134.129V135.02H25.4312V134.381L29.2515 128.469H30.1362L29.187 130.18L26.6616 134.129H31.5952ZM30.4058 128.469V137H29.3218V128.469H30.4058Z" fill="#8794BA"/>
<path d="M7.85303 192.109V193H2.26904V192.221L5.06396 189.109C5.40771 188.727 5.67334 188.402 5.86084 188.137C6.05225 187.867 6.18506 187.627 6.25928 187.416C6.3374 187.201 6.37646 186.982 6.37646 186.76C6.37646 186.479 6.31787 186.225 6.20068 185.998C6.0874 185.768 5.91943 185.584 5.69678 185.447C5.47412 185.311 5.20459 185.242 4.88818 185.242C4.50928 185.242 4.19287 185.316 3.93896 185.465C3.68896 185.609 3.50146 185.812 3.37646 186.074C3.25146 186.336 3.18896 186.637 3.18896 186.977H2.10498C2.10498 186.496 2.21045 186.057 2.42139 185.658C2.63232 185.26 2.94482 184.943 3.35889 184.709C3.77295 184.471 4.28271 184.352 4.88818 184.352C5.42725 184.352 5.88818 184.447 6.271 184.639C6.65381 184.826 6.94678 185.092 7.1499 185.436C7.35693 185.775 7.46045 186.174 7.46045 186.631C7.46045 186.881 7.41748 187.135 7.33154 187.393C7.24951 187.646 7.13428 187.9 6.98584 188.154C6.84131 188.408 6.67139 188.658 6.47607 188.904C6.28467 189.15 6.07959 189.393 5.86084 189.631L3.57568 192.109H7.85303ZM10.3843 188.939L9.51709 188.717L9.94482 184.469H14.3218V185.471H10.8647L10.6069 187.791C10.7632 187.701 10.9604 187.617 11.1987 187.539C11.4409 187.461 11.7183 187.422 12.0308 187.422C12.4253 187.422 12.7788 187.49 13.0913 187.627C13.4038 187.76 13.6694 187.951 13.8882 188.201C14.1108 188.451 14.2808 188.752 14.3979 189.104C14.5151 189.455 14.5737 189.848 14.5737 190.281C14.5737 190.691 14.5171 191.068 14.4038 191.412C14.2944 191.756 14.1284 192.057 13.9058 192.314C13.6831 192.568 13.4019 192.766 13.062 192.906C12.7261 193.047 12.3296 193.117 11.8726 193.117C11.5288 193.117 11.2026 193.07 10.894 192.977C10.5894 192.879 10.3159 192.732 10.0737 192.537C9.83545 192.338 9.64014 192.092 9.48779 191.799C9.33936 191.502 9.24561 191.154 9.20654 190.756H10.2378C10.2847 191.076 10.3784 191.346 10.519 191.564C10.6597 191.783 10.8433 191.949 11.0698 192.062C11.3003 192.172 11.5679 192.227 11.8726 192.227C12.1304 192.227 12.3589 192.182 12.5581 192.092C12.7573 192.002 12.9253 191.873 13.062 191.705C13.1987 191.537 13.3022 191.334 13.3726 191.096C13.4468 190.857 13.4839 190.59 13.4839 190.293C13.4839 190.023 13.4468 189.773 13.3726 189.543C13.2983 189.312 13.187 189.111 13.0386 188.939C12.894 188.768 12.7163 188.635 12.5054 188.541C12.2944 188.443 12.0522 188.395 11.7788 188.395C11.4155 188.395 11.1401 188.443 10.9526 188.541C10.769 188.639 10.5796 188.771 10.3843 188.939ZM18.1362 188.928V189.818H15.2769V188.928H18.1362ZM20.6616 188.201H21.4351C21.814 188.201 22.1265 188.139 22.3726 188.014C22.6226 187.885 22.8081 187.711 22.9292 187.492C23.0542 187.27 23.1167 187.02 23.1167 186.742C23.1167 186.414 23.062 186.139 22.9526 185.916C22.8433 185.693 22.6792 185.525 22.4604 185.412C22.2417 185.299 21.9644 185.242 21.6284 185.242C21.3237 185.242 21.0542 185.303 20.8198 185.424C20.5894 185.541 20.4077 185.709 20.2749 185.928C20.146 186.146 20.0815 186.404 20.0815 186.701H18.9976C18.9976 186.268 19.1069 185.873 19.3257 185.518C19.5444 185.162 19.8511 184.879 20.2456 184.668C20.644 184.457 21.105 184.352 21.6284 184.352C22.144 184.352 22.5952 184.443 22.9819 184.627C23.3687 184.807 23.6694 185.076 23.8843 185.436C24.0991 185.791 24.2065 186.234 24.2065 186.766C24.2065 186.98 24.1558 187.211 24.0542 187.457C23.9565 187.699 23.8022 187.926 23.5913 188.137C23.3843 188.348 23.1147 188.521 22.7827 188.658C22.4507 188.791 22.0522 188.857 21.5874 188.857H20.6616V188.201ZM20.6616 189.092V188.441H21.5874C22.1304 188.441 22.5796 188.506 22.9351 188.635C23.2905 188.764 23.5698 188.936 23.7729 189.15C23.98 189.365 24.1245 189.602 24.2065 189.859C24.2925 190.113 24.3354 190.367 24.3354 190.621C24.3354 191.02 24.2671 191.373 24.1304 191.682C23.9976 191.99 23.8081 192.252 23.562 192.467C23.3198 192.682 23.0347 192.844 22.7065 192.953C22.3784 193.062 22.021 193.117 21.6343 193.117C21.2632 193.117 20.9136 193.064 20.5854 192.959C20.2612 192.854 19.9741 192.701 19.7241 192.502C19.4741 192.299 19.2788 192.051 19.1382 191.758C18.9976 191.461 18.9272 191.123 18.9272 190.744H20.0112C20.0112 191.041 20.0757 191.301 20.2046 191.523C20.3374 191.746 20.5249 191.92 20.7671 192.045C21.0132 192.166 21.3022 192.227 21.6343 192.227C21.9663 192.227 22.2515 192.17 22.4897 192.057C22.7319 191.939 22.9175 191.764 23.0464 191.529C23.1792 191.295 23.2456 191 23.2456 190.645C23.2456 190.289 23.1714 189.998 23.0229 189.771C22.8745 189.541 22.6636 189.371 22.3901 189.262C22.1206 189.148 21.8022 189.092 21.4351 189.092H20.6616ZM31.5952 190.129V191.02H25.4312V190.381L29.2515 184.469H30.1362L29.187 186.18L26.6616 190.129H31.5952ZM30.4058 184.469V193H29.3218V184.469H30.4058Z" fill="#8794BA"/>
<path d="M5.82568 240.422V249H4.7417V241.775L2.55615 242.572V241.594L5.65576 240.422H5.82568ZM14.3921 246.691C14.3921 247.211 14.271 247.652 14.0288 248.016C13.7905 248.375 13.4663 248.648 13.0562 248.836C12.6499 249.023 12.1909 249.117 11.6792 249.117C11.1675 249.117 10.7065 249.023 10.2964 248.836C9.88623 248.648 9.56201 248.375 9.32373 248.016C9.08545 247.652 8.96631 247.211 8.96631 246.691C8.96631 246.352 9.03076 246.041 9.15967 245.76C9.29248 245.475 9.47803 245.227 9.71631 245.016C9.9585 244.805 10.2437 244.643 10.5718 244.529C10.9038 244.412 11.269 244.354 11.6675 244.354C12.1909 244.354 12.6577 244.455 13.0679 244.658C13.478 244.857 13.8003 245.133 14.0347 245.484C14.2729 245.836 14.3921 246.238 14.3921 246.691ZM13.3022 246.668C13.3022 246.352 13.2339 246.072 13.0972 245.83C12.9604 245.584 12.769 245.393 12.5229 245.256C12.2769 245.119 11.9917 245.051 11.6675 245.051C11.3354 245.051 11.0483 245.119 10.8062 245.256C10.5679 245.393 10.3823 245.584 10.2495 245.83C10.1167 246.072 10.0503 246.352 10.0503 246.668C10.0503 246.996 10.1147 247.277 10.2437 247.512C10.3765 247.742 10.564 247.92 10.8062 248.045C11.0522 248.166 11.3433 248.227 11.6792 248.227C12.0151 248.227 12.3042 248.166 12.5464 248.045C12.7886 247.92 12.9741 247.742 13.103 247.512C13.2358 247.277 13.3022 246.996 13.3022 246.668ZM14.1929 242.689C14.1929 243.104 14.0835 243.477 13.8647 243.809C13.646 244.141 13.3472 244.402 12.9683 244.594C12.5894 244.785 12.1597 244.881 11.6792 244.881C11.1909 244.881 10.7554 244.785 10.3726 244.594C9.99365 244.402 9.69678 244.141 9.48193 243.809C9.26709 243.477 9.15967 243.104 9.15967 242.689C9.15967 242.193 9.26709 241.771 9.48193 241.424C9.70068 241.076 9.99951 240.811 10.3784 240.627C10.7573 240.443 11.189 240.352 11.6733 240.352C12.1616 240.352 12.5952 240.443 12.9741 240.627C13.353 240.811 13.6499 241.076 13.8647 241.424C14.0835 241.771 14.1929 242.193 14.1929 242.689ZM13.1089 242.707C13.1089 242.422 13.0483 242.17 12.9272 241.951C12.8062 241.732 12.6382 241.561 12.4233 241.436C12.2085 241.307 11.9585 241.242 11.6733 241.242C11.3882 241.242 11.1382 241.303 10.9233 241.424C10.7124 241.541 10.5464 241.709 10.4253 241.928C10.3081 242.146 10.2495 242.406 10.2495 242.707C10.2495 243 10.3081 243.256 10.4253 243.475C10.5464 243.693 10.7144 243.863 10.9292 243.984C11.144 244.105 11.394 244.166 11.6792 244.166C11.9644 244.166 12.2124 244.105 12.4233 243.984C12.6382 243.863 12.8062 243.693 12.9272 243.475C13.0483 243.256 13.1089 243 13.1089 242.707ZM18.1362 244.928V245.818H15.2769V244.928H18.1362ZM24.6694 248.109V249H19.0854V248.221L21.8804 245.109C22.2241 244.727 22.4897 244.402 22.6772 244.137C22.8687 243.867 23.0015 243.627 23.0757 243.416C23.1538 243.201 23.1929 242.982 23.1929 242.76C23.1929 242.479 23.1343 242.225 23.0171 241.998C22.9038 241.768 22.7358 241.584 22.5132 241.447C22.2905 241.311 22.021 241.242 21.7046 241.242C21.3257 241.242 21.0093 241.316 20.7554 241.465C20.5054 241.609 20.3179 241.812 20.1929 242.074C20.0679 242.336 20.0054 242.637 20.0054 242.977H18.9214C18.9214 242.496 19.0269 242.057 19.2378 241.658C19.4487 241.26 19.7612 240.943 20.1753 240.709C20.5894 240.471 21.0991 240.352 21.7046 240.352C22.2437 240.352 22.7046 240.447 23.0874 240.639C23.4702 240.826 23.7632 241.092 23.9663 241.436C24.1733 241.775 24.2769 242.174 24.2769 242.631C24.2769 242.881 24.2339 243.135 24.1479 243.393C24.0659 243.646 23.9507 243.9 23.8022 244.154C23.6577 244.408 23.4878 244.658 23.2925 244.904C23.1011 245.15 22.896 245.393 22.6772 245.631L20.3921 248.109H24.6694ZM31.5952 246.129V247.02H25.4312V246.381L29.2515 240.469H30.1362L29.187 242.18L26.6616 246.129H31.5952ZM30.4058 240.469V249H29.3218V240.469H30.4058Z" fill="#8794BA"/>
<path d="M42.8706 7H299.371C302.408 7 304.871 9.46243 304.871 12.5C304.871 15.5376 302.408 18 299.371 18H42.8706V7Z" fill="#EF2A82"/>
<path d="M42.8706 64H212.371C215.408 64 217.871 66.4624 217.871 69.5C217.871 72.5376 215.408 75 212.371 75H42.8706V64Z" fill="#EF2A82"/>
<path d="M42.8706 121H53.3706C56.4082 121 58.8706 123.462 58.8706 126.5C58.8706 129.538 56.4082 132 53.3706 132H42.8706V121Z" fill="#EF2A82"/>
<path d="M42.8706 178H85.3706C88.4082 178 90.8706 180.462 90.8706 183.5C90.8706 186.538 88.4082 189 85.3706 189H42.8706V178Z" fill="#EF2A82"/>
<path d="M42.8706 235H245.371C248.408 235 250.871 237.462 250.871 240.5C250.871 243.538 248.408 246 245.371 246H42.8706V235Z" fill="#EF2A82"/>
<path d="M42.8706 21H185.371C188.408 21 190.871 23.4624 190.871 26.5C190.871 29.5376 188.408 32 185.371 32H42.8706V21Z" fill="#0088F0"/>
<path d="M42.8706 78H245.371C248.408 78 250.871 80.4624 250.871 83.5C250.871 86.5376 248.408 89 245.371 89H42.8706V78Z" fill="#0088F0"/>
<path d="M42.8706 135H85.3706C88.4082 135 90.8706 137.462 90.8706 140.5C90.8706 143.538 88.4082 146 85.3706 146H42.8706V135Z" fill="#0088F0"/>
<path d="M42.8706 192H376.371C379.408 192 381.871 194.462 381.871 197.5C381.871 200.538 379.408 203 376.371 203H42.8706V192Z" fill="#0088F0"/>
<path d="M42.8706 249H433.371C436.408 249 438.871 251.462 438.871 254.5C438.871 257.538 436.408 260 433.371 260H42.8706V249Z" fill="#0088F0"/>
</svg>
