<svg width="463" height="305" viewBox="0 0 463 305" fill="none" xmlns="http://www.w3.org/2000/svg">
<rect x="0.870605" y="45" width="66" height="52" fill="white"/>
<rect x="66.8706" y="45" width="66" height="52" fill="white"/>
<path d="M99.9814 66.4219V75H98.8975V67.7754L96.7119 68.5723V67.5938L99.8115 66.4219H99.9814Z" fill="#172755"/>
<rect x="132.871" y="45" width="66" height="52" fill="white"/>
<path d="M168.009 74.1094V75H162.425V74.2207L165.22 71.1094C165.563 70.7266 165.829 70.4023 166.017 70.1367C166.208 69.8672 166.341 69.627 166.415 69.416C166.493 69.2012 166.532 68.9824 166.532 68.7598C166.532 68.4785 166.474 68.2246 166.356 67.998C166.243 67.7676 166.075 67.584 165.853 67.4473C165.63 67.3105 165.36 67.2422 165.044 67.2422C164.665 67.2422 164.349 67.3164 164.095 67.4648C163.845 67.6094 163.657 67.8125 163.532 68.0742C163.407 68.3359 163.345 68.6367 163.345 68.9766H162.261C162.261 68.4961 162.366 68.0566 162.577 67.6582C162.788 67.2598 163.101 66.9434 163.515 66.709C163.929 66.4707 164.438 66.3516 165.044 66.3516C165.583 66.3516 166.044 66.4473 166.427 66.6387C166.81 66.8262 167.103 67.0918 167.306 67.4355C167.513 67.7754 167.616 68.1738 167.616 68.6309C167.616 68.8809 167.573 69.1348 167.487 69.3926C167.405 69.6465 167.29 69.9004 167.142 70.1543C166.997 70.4082 166.827 70.6582 166.632 70.9043C166.44 71.1504 166.235 71.3926 166.017 71.6309L163.731 74.1094H168.009Z" fill="#172755"/>
<rect x="198.871" y="45" width="66" height="52" fill="white"/>
<path d="M230.001 70.2012H230.774C231.153 70.2012 231.466 70.1387 231.712 70.0137C231.962 69.8848 232.147 69.7109 232.269 69.4922C232.394 69.2695 232.456 69.0195 232.456 68.7422C232.456 68.4141 232.401 68.1387 232.292 67.916C232.183 67.6934 232.019 67.5254 231.8 67.4121C231.581 67.2988 231.304 67.2422 230.968 67.2422C230.663 67.2422 230.394 67.3027 230.159 67.4238C229.929 67.541 229.747 67.709 229.614 67.9277C229.485 68.1465 229.421 68.4043 229.421 68.7012H228.337C228.337 68.2676 228.446 67.873 228.665 67.5176C228.884 67.1621 229.19 66.8789 229.585 66.668C229.983 66.457 230.444 66.3516 230.968 66.3516C231.483 66.3516 231.935 66.4434 232.321 66.627C232.708 66.8066 233.009 67.0762 233.224 67.4355C233.438 67.791 233.546 68.2344 233.546 68.7656C233.546 68.9805 233.495 69.2109 233.394 69.457C233.296 69.6992 233.142 69.9258 232.931 70.1367C232.724 70.3477 232.454 70.5215 232.122 70.6582C231.79 70.791 231.392 70.8574 230.927 70.8574H230.001V70.2012ZM230.001 71.0918V70.4414H230.927C231.47 70.4414 231.919 70.5059 232.274 70.6348C232.63 70.7637 232.909 70.9355 233.112 71.1504C233.319 71.3652 233.464 71.6016 233.546 71.8594C233.632 72.1133 233.675 72.3672 233.675 72.6211C233.675 73.0195 233.606 73.373 233.47 73.6816C233.337 73.9902 233.147 74.252 232.901 74.4668C232.659 74.6816 232.374 74.8438 232.046 74.9531C231.718 75.0625 231.36 75.1172 230.974 75.1172C230.603 75.1172 230.253 75.0645 229.925 74.959C229.601 74.8535 229.313 74.7012 229.063 74.502C228.813 74.2988 228.618 74.0508 228.478 73.7578C228.337 73.4609 228.267 73.123 228.267 72.7441H229.351C229.351 73.041 229.415 73.3008 229.544 73.5234C229.677 73.7461 229.864 73.9199 230.106 74.0449C230.353 74.166 230.642 74.2266 230.974 74.2266C231.306 74.2266 231.591 74.1699 231.829 74.0566C232.071 73.9395 232.257 73.7637 232.386 73.5293C232.519 73.2949 232.585 73 232.585 72.6445C232.585 72.2891 232.511 71.998 232.362 71.7715C232.214 71.541 232.003 71.3711 231.729 71.2617C231.46 71.1484 231.142 71.0918 230.774 71.0918H230.001Z" fill="#172755"/>
<rect x="264.871" y="45" width="66" height="52" fill="white"/>
<path d="M300.185 72.1289V73.0195H294.021V72.3809L297.841 66.4688H298.726L297.776 68.1797L295.251 72.1289H300.185ZM298.995 66.4688V75H297.911V66.4688H298.995Z" fill="#172755"/>
<rect x="330.871" y="45" width="66" height="52" fill="white"/>
<path d="M361.79 70.9395L360.923 70.7168L361.351 66.4688H365.728V67.4707H362.271L362.013 69.791C362.169 69.7012 362.366 69.6172 362.604 69.5391C362.847 69.4609 363.124 69.4219 363.437 69.4219C363.831 69.4219 364.185 69.4902 364.497 69.627C364.81 69.7598 365.075 69.9512 365.294 70.2012C365.517 70.4512 365.687 70.752 365.804 71.1035C365.921 71.4551 365.979 71.8477 365.979 72.2812C365.979 72.6914 365.923 73.0684 365.81 73.4121C365.7 73.7559 365.534 74.0566 365.312 74.3145C365.089 74.5684 364.808 74.7656 364.468 74.9062C364.132 75.0469 363.735 75.1172 363.278 75.1172C362.935 75.1172 362.608 75.0703 362.3 74.9766C361.995 74.8789 361.722 74.7324 361.479 74.5371C361.241 74.3379 361.046 74.0918 360.894 73.7988C360.745 73.502 360.651 73.1543 360.612 72.7559H361.644C361.69 73.0762 361.784 73.3457 361.925 73.5645C362.065 73.7832 362.249 73.9492 362.476 74.0625C362.706 74.1719 362.974 74.2266 363.278 74.2266C363.536 74.2266 363.765 74.1816 363.964 74.0918C364.163 74.002 364.331 73.873 364.468 73.7051C364.604 73.5371 364.708 73.334 364.778 73.0957C364.853 72.8574 364.89 72.5898 364.89 72.293C364.89 72.0234 364.853 71.7734 364.778 71.543C364.704 71.3125 364.593 71.1113 364.444 70.9395C364.3 70.7676 364.122 70.6348 363.911 70.541C363.7 70.4434 363.458 70.3945 363.185 70.3945C362.821 70.3945 362.546 70.4434 362.358 70.541C362.175 70.6387 361.985 70.7715 361.79 70.9395Z" fill="#172755"/>
<rect x="396.871" y="45" width="66" height="52" fill="white"/>
<path d="M430.579 66.457H430.673V67.377H430.579C430.005 67.377 429.524 67.4707 429.138 67.6582C428.751 67.8418 428.444 68.0898 428.218 68.4023C427.991 68.7109 427.827 69.0586 427.726 69.4453C427.628 69.832 427.579 70.2246 427.579 70.623V71.877C427.579 72.2559 427.624 72.5918 427.714 72.8848C427.804 73.1738 427.927 73.418 428.083 73.6172C428.239 73.8164 428.415 73.9668 428.61 74.0684C428.81 74.1699 429.017 74.2207 429.231 74.2207C429.481 74.2207 429.704 74.1738 429.899 74.0801C430.095 73.9824 430.259 73.8477 430.392 73.6758C430.528 73.5 430.632 73.293 430.702 73.0547C430.772 72.8164 430.808 72.5547 430.808 72.2695C430.808 72.0156 430.776 71.7715 430.714 71.5371C430.651 71.2988 430.556 71.0879 430.427 70.9043C430.298 70.7168 430.136 70.5703 429.94 70.4648C429.749 70.3555 429.521 70.3008 429.255 70.3008C428.954 70.3008 428.673 70.375 428.411 70.5234C428.153 70.668 427.94 70.8594 427.772 71.0977C427.608 71.332 427.515 71.5879 427.491 71.8652L426.917 71.8594C426.972 71.4219 427.073 71.0488 427.222 70.7402C427.374 70.4277 427.562 70.1738 427.784 69.9785C428.011 69.7793 428.263 69.6348 428.54 69.5449C428.821 69.4512 429.118 69.4043 429.431 69.4043C429.856 69.4043 430.224 69.4844 430.532 69.6445C430.841 69.8047 431.095 70.0195 431.294 70.2891C431.493 70.5547 431.64 70.8555 431.733 71.1914C431.831 71.5234 431.88 71.8652 431.88 72.2168C431.88 72.6191 431.823 72.9961 431.71 73.3477C431.597 73.6992 431.427 74.0078 431.2 74.2734C430.978 74.5391 430.702 74.7461 430.374 74.8945C430.046 75.043 429.665 75.1172 429.231 75.1172C428.771 75.1172 428.368 75.0234 428.024 74.8359C427.681 74.6445 427.396 74.3906 427.169 74.0742C426.942 73.7578 426.772 73.4062 426.659 73.0195C426.546 72.6328 426.489 72.2402 426.489 71.8418V71.332C426.489 70.7305 426.55 70.1406 426.671 69.5625C426.792 68.9844 427.001 68.4609 427.298 67.9922C427.599 67.5234 428.015 67.1504 428.546 66.873C429.077 66.5957 429.755 66.457 430.579 66.457Z" fill="#172755"/>
<rect x="0.870605" y="97" width="66" height="52" fill="white"/>
<path d="M35.9326 118.469V119.078L32.3994 127H31.2568L34.7842 119.359H30.167V118.469H35.9326Z" fill="#172755"/>
<rect x="66.8706" y="97" width="66" height="52" fill="white"/>
<circle cx="99.3706" cy="122.5" r="19.5" fill="#0088F0"/>
<path d="M101.798 124.691C101.798 125.211 101.677 125.652 101.435 126.016C101.196 126.375 100.872 126.648 100.462 126.836C100.056 127.023 99.5967 127.117 99.085 127.117C98.5732 127.117 98.1123 127.023 97.7021 126.836C97.292 126.648 96.9678 126.375 96.7295 126.016C96.4912 125.652 96.3721 125.211 96.3721 124.691C96.3721 124.352 96.4365 124.041 96.5654 123.76C96.6982 123.475 96.8838 123.227 97.1221 123.016C97.3643 122.805 97.6494 122.643 97.9775 122.529C98.3096 122.412 98.6748 122.354 99.0732 122.354C99.5967 122.354 100.063 122.455 100.474 122.658C100.884 122.857 101.206 123.133 101.44 123.484C101.679 123.836 101.798 124.238 101.798 124.691ZM100.708 124.668C100.708 124.352 100.64 124.072 100.503 123.83C100.366 123.584 100.175 123.393 99.9287 123.256C99.6826 123.119 99.3975 123.051 99.0732 123.051C98.7412 123.051 98.4541 123.119 98.2119 123.256C97.9736 123.393 97.7881 123.584 97.6553 123.83C97.5225 124.072 97.4561 124.352 97.4561 124.668C97.4561 124.996 97.5205 125.277 97.6494 125.512C97.7822 125.742 97.9697 125.92 98.2119 126.045C98.458 126.166 98.749 126.227 99.085 126.227C99.4209 126.227 99.71 126.166 99.9521 126.045C100.194 125.92 100.38 125.742 100.509 125.512C100.642 125.277 100.708 124.996 100.708 124.668ZM101.599 120.689C101.599 121.104 101.489 121.477 101.271 121.809C101.052 122.141 100.753 122.402 100.374 122.594C99.9951 122.785 99.5654 122.881 99.085 122.881C98.5967 122.881 98.1611 122.785 97.7783 122.594C97.3994 122.402 97.1025 122.141 96.8877 121.809C96.6729 121.477 96.5654 121.104 96.5654 120.689C96.5654 120.193 96.6729 119.771 96.8877 119.424C97.1064 119.076 97.4053 118.811 97.7842 118.627C98.1631 118.443 98.5947 118.352 99.0791 118.352C99.5674 118.352 100.001 118.443 100.38 118.627C100.759 118.811 101.056 119.076 101.271 119.424C101.489 119.771 101.599 120.193 101.599 120.689ZM100.515 120.707C100.515 120.422 100.454 120.17 100.333 119.951C100.212 119.732 100.044 119.561 99.8291 119.436C99.6143 119.307 99.3643 119.242 99.0791 119.242C98.7939 119.242 98.5439 119.303 98.3291 119.424C98.1182 119.541 97.9521 119.709 97.8311 119.928C97.7139 120.146 97.6553 120.406 97.6553 120.707C97.6553 121 97.7139 121.256 97.8311 121.475C97.9521 121.693 98.1201 121.863 98.335 121.984C98.5498 122.105 98.7998 122.166 99.085 122.166C99.3701 122.166 99.6182 122.105 99.8291 121.984C100.044 121.863 100.212 121.693 100.333 121.475C100.454 121.256 100.515 121 100.515 120.707Z" fill="#EEEEF7"/>
<rect x="132.871" y="97" width="66" height="52" fill="white"/>
<circle cx="165.371" cy="122.5" r="19.5" fill="#0088F0"/>
<path d="M163.497 126.092H163.608C164.233 126.092 164.741 126.004 165.132 125.828C165.522 125.652 165.823 125.416 166.034 125.119C166.245 124.822 166.39 124.488 166.468 124.117C166.546 123.742 166.585 123.357 166.585 122.963V121.656C166.585 121.27 166.54 120.926 166.45 120.625C166.364 120.324 166.243 120.072 166.087 119.869C165.935 119.666 165.761 119.512 165.565 119.406C165.37 119.301 165.163 119.248 164.944 119.248C164.694 119.248 164.47 119.299 164.271 119.4C164.075 119.498 163.909 119.637 163.772 119.816C163.64 119.996 163.538 120.207 163.468 120.449C163.397 120.691 163.362 120.955 163.362 121.24C163.362 121.494 163.394 121.74 163.456 121.979C163.519 122.217 163.614 122.432 163.743 122.623C163.872 122.814 164.032 122.967 164.224 123.08C164.419 123.189 164.647 123.244 164.909 123.244C165.151 123.244 165.378 123.197 165.589 123.104C165.804 123.006 165.993 122.875 166.157 122.711C166.325 122.543 166.458 122.354 166.556 122.143C166.657 121.932 166.716 121.711 166.731 121.48H167.247C167.247 121.805 167.183 122.125 167.054 122.441C166.929 122.754 166.753 123.039 166.526 123.297C166.3 123.555 166.034 123.762 165.729 123.918C165.425 124.07 165.093 124.146 164.733 124.146C164.312 124.146 163.946 124.064 163.638 123.9C163.329 123.736 163.075 123.518 162.876 123.244C162.681 122.971 162.534 122.666 162.437 122.33C162.343 121.99 162.296 121.646 162.296 121.299C162.296 120.893 162.353 120.512 162.466 120.156C162.579 119.801 162.747 119.488 162.97 119.219C163.192 118.945 163.468 118.732 163.796 118.58C164.128 118.428 164.511 118.352 164.944 118.352C165.433 118.352 165.849 118.449 166.192 118.645C166.536 118.84 166.815 119.102 167.03 119.43C167.249 119.758 167.409 120.127 167.511 120.537C167.612 120.947 167.663 121.369 167.663 121.803V122.195C167.663 122.637 167.634 123.086 167.575 123.543C167.521 123.996 167.413 124.43 167.253 124.844C167.097 125.258 166.868 125.629 166.567 125.957C166.267 126.281 165.874 126.539 165.39 126.73C164.909 126.918 164.315 127.012 163.608 127.012H163.497V126.092Z" fill="#EEEEF7"/>
<rect x="198.871" y="97" width="66" height="52" fill="white"/>
<circle cx="231.371" cy="122.5" r="19.5" fill="#0088F0"/>
<path d="M228.106 118.422V127H227.022V119.775L224.837 120.572V119.594L227.937 118.422H228.106ZM236.649 122.055V123.355C236.649 124.055 236.587 124.645 236.462 125.125C236.337 125.605 236.157 125.992 235.923 126.285C235.688 126.578 235.405 126.791 235.073 126.924C234.745 127.053 234.374 127.117 233.96 127.117C233.632 127.117 233.329 127.076 233.052 126.994C232.774 126.912 232.524 126.781 232.302 126.602C232.083 126.418 231.896 126.18 231.739 125.887C231.583 125.594 231.464 125.238 231.382 124.82C231.3 124.402 231.259 123.914 231.259 123.355V122.055C231.259 121.355 231.321 120.77 231.446 120.297C231.575 119.824 231.757 119.445 231.991 119.16C232.226 118.871 232.507 118.664 232.835 118.539C233.167 118.414 233.538 118.352 233.948 118.352C234.28 118.352 234.585 118.393 234.862 118.475C235.144 118.553 235.394 118.68 235.612 118.855C235.831 119.027 236.017 119.258 236.169 119.547C236.325 119.832 236.444 120.182 236.526 120.596C236.608 121.01 236.649 121.496 236.649 122.055ZM235.56 123.531V121.873C235.56 121.49 235.536 121.154 235.489 120.865C235.446 120.572 235.382 120.322 235.296 120.115C235.21 119.908 235.101 119.74 234.968 119.611C234.839 119.482 234.688 119.389 234.517 119.33C234.349 119.268 234.159 119.236 233.948 119.236C233.69 119.236 233.462 119.285 233.263 119.383C233.063 119.477 232.896 119.627 232.759 119.834C232.626 120.041 232.524 120.312 232.454 120.648C232.384 120.984 232.349 121.393 232.349 121.873V123.531C232.349 123.914 232.37 124.252 232.413 124.545C232.46 124.838 232.528 125.092 232.618 125.307C232.708 125.518 232.817 125.691 232.946 125.828C233.075 125.965 233.224 126.066 233.392 126.133C233.563 126.195 233.753 126.227 233.96 126.227C234.226 126.227 234.458 126.176 234.657 126.074C234.856 125.973 235.022 125.814 235.155 125.6C235.292 125.381 235.394 125.102 235.46 124.762C235.526 124.418 235.56 124.008 235.56 123.531Z" fill="#EEEEF7"/>
<rect x="264.871" y="97" width="66" height="52" fill="white"/>
<path d="M294.106 118.422V127H293.022V119.775L290.837 120.572V119.594L293.937 118.422H294.106ZM300.856 118.422V127H299.772V119.775L297.587 120.572V119.594L300.687 118.422H300.856Z" fill="#172755"/>
<rect x="330.871" y="97" width="66" height="52" fill="white"/>
<path d="M360.106 118.422V127H359.022V119.775L356.837 120.572V119.594L359.937 118.422H360.106ZM368.884 126.109V127H363.3V126.221L366.095 123.109C366.438 122.727 366.704 122.402 366.892 122.137C367.083 121.867 367.216 121.627 367.29 121.416C367.368 121.201 367.407 120.982 367.407 120.76C367.407 120.479 367.349 120.225 367.231 119.998C367.118 119.768 366.95 119.584 366.728 119.447C366.505 119.311 366.235 119.242 365.919 119.242C365.54 119.242 365.224 119.316 364.97 119.465C364.72 119.609 364.532 119.812 364.407 120.074C364.282 120.336 364.22 120.637 364.22 120.977H363.136C363.136 120.496 363.241 120.057 363.452 119.658C363.663 119.26 363.976 118.943 364.39 118.709C364.804 118.471 365.313 118.352 365.919 118.352C366.458 118.352 366.919 118.447 367.302 118.639C367.685 118.826 367.978 119.092 368.181 119.436C368.388 119.775 368.491 120.174 368.491 120.631C368.491 120.881 368.448 121.135 368.362 121.393C368.28 121.646 368.165 121.9 368.017 122.154C367.872 122.408 367.702 122.658 367.507 122.904C367.315 123.15 367.11 123.393 366.892 123.631L364.606 126.109H368.884Z" fill="#172755"/>
<rect x="396.871" y="97" width="66" height="52" fill="white"/>
<path d="M426.106 118.422V127H425.022V119.775L422.837 120.572V119.594L425.937 118.422H426.106ZM430.876 122.201H431.649C432.028 122.201 432.341 122.139 432.587 122.014C432.837 121.885 433.022 121.711 433.144 121.492C433.269 121.27 433.331 121.02 433.331 120.742C433.331 120.414 433.276 120.139 433.167 119.916C433.058 119.693 432.894 119.525 432.675 119.412C432.456 119.299 432.179 119.242 431.843 119.242C431.538 119.242 431.269 119.303 431.034 119.424C430.804 119.541 430.622 119.709 430.489 119.928C430.36 120.146 430.296 120.404 430.296 120.701H429.212C429.212 120.268 429.321 119.873 429.54 119.518C429.759 119.162 430.065 118.879 430.46 118.668C430.858 118.457 431.319 118.352 431.843 118.352C432.358 118.352 432.81 118.443 433.196 118.627C433.583 118.807 433.884 119.076 434.099 119.436C434.313 119.791 434.421 120.234 434.421 120.766C434.421 120.98 434.37 121.211 434.269 121.457C434.171 121.699 434.017 121.926 433.806 122.137C433.599 122.348 433.329 122.521 432.997 122.658C432.665 122.791 432.267 122.857 431.802 122.857H430.876V122.201ZM430.876 123.092V122.441H431.802C432.345 122.441 432.794 122.506 433.149 122.635C433.505 122.764 433.784 122.936 433.987 123.15C434.194 123.365 434.339 123.602 434.421 123.859C434.507 124.113 434.55 124.367 434.55 124.621C434.55 125.02 434.481 125.373 434.345 125.682C434.212 125.99 434.022 126.252 433.776 126.467C433.534 126.682 433.249 126.844 432.921 126.953C432.593 127.062 432.235 127.117 431.849 127.117C431.478 127.117 431.128 127.064 430.8 126.959C430.476 126.854 430.188 126.701 429.938 126.502C429.688 126.299 429.493 126.051 429.353 125.758C429.212 125.461 429.142 125.123 429.142 124.744H430.226C430.226 125.041 430.29 125.301 430.419 125.523C430.552 125.746 430.739 125.92 430.981 126.045C431.228 126.166 431.517 126.227 431.849 126.227C432.181 126.227 432.466 126.17 432.704 126.057C432.946 125.939 433.132 125.764 433.261 125.529C433.394 125.295 433.46 125 433.46 124.645C433.46 124.289 433.386 123.998 433.237 123.771C433.089 123.541 432.878 123.371 432.604 123.262C432.335 123.148 432.017 123.092 431.649 123.092H430.876Z" fill="#172755"/>
<rect x="0.870605" y="149" width="66" height="52" fill="white"/>
<path d="M30.1064 170.422V179H29.0225V171.775L26.8369 172.572V171.594L29.9365 170.422H30.1064ZM39.0596 176.129V177.02H32.8955V176.381L36.7158 170.469H37.6006L36.6514 172.18L34.126 176.129H39.0596ZM37.8701 170.469V179H36.7861V170.469H37.8701Z" fill="#172755"/>
<rect x="66.8706" y="149" width="66" height="52" fill="white"/>
<path d="M96.1064 170.422V179H95.0225V171.775L92.8369 172.572V171.594L95.9365 170.422H96.1064ZM100.665 174.939L99.7979 174.717L100.226 170.469H104.603V171.471H101.146L100.888 173.791C101.044 173.701 101.241 173.617 101.479 173.539C101.722 173.461 101.999 173.422 102.312 173.422C102.706 173.422 103.06 173.49 103.372 173.627C103.685 173.76 103.95 173.951 104.169 174.201C104.392 174.451 104.562 174.752 104.679 175.104C104.796 175.455 104.854 175.848 104.854 176.281C104.854 176.691 104.798 177.068 104.685 177.412C104.575 177.756 104.409 178.057 104.187 178.314C103.964 178.568 103.683 178.766 103.343 178.906C103.007 179.047 102.61 179.117 102.153 179.117C101.81 179.117 101.483 179.07 101.175 178.977C100.87 178.879 100.597 178.732 100.354 178.537C100.116 178.338 99.9209 178.092 99.7686 177.799C99.6201 177.502 99.5264 177.154 99.4873 176.756H100.519C100.565 177.076 100.659 177.346 100.8 177.564C100.94 177.783 101.124 177.949 101.351 178.062C101.581 178.172 101.849 178.227 102.153 178.227C102.411 178.227 102.64 178.182 102.839 178.092C103.038 178.002 103.206 177.873 103.343 177.705C103.479 177.537 103.583 177.334 103.653 177.096C103.728 176.857 103.765 176.59 103.765 176.293C103.765 176.023 103.728 175.773 103.653 175.543C103.579 175.312 103.468 175.111 103.319 174.939C103.175 174.768 102.997 174.635 102.786 174.541C102.575 174.443 102.333 174.395 102.06 174.395C101.696 174.395 101.421 174.443 101.233 174.541C101.05 174.639 100.86 174.771 100.665 174.939Z" fill="#172755"/>
<rect x="132.871" y="149" width="66" height="52" fill="white"/>
<path d="M162.106 170.422V179H161.022V171.775L158.837 172.572V171.594L161.937 170.422H162.106ZM169.454 170.457H169.548V171.377H169.454C168.88 171.377 168.399 171.471 168.013 171.658C167.626 171.842 167.319 172.09 167.093 172.402C166.866 172.711 166.702 173.059 166.601 173.445C166.503 173.832 166.454 174.225 166.454 174.623V175.877C166.454 176.256 166.499 176.592 166.589 176.885C166.679 177.174 166.802 177.418 166.958 177.617C167.114 177.816 167.29 177.967 167.485 178.068C167.685 178.17 167.892 178.221 168.106 178.221C168.356 178.221 168.579 178.174 168.774 178.08C168.97 177.982 169.134 177.848 169.267 177.676C169.403 177.5 169.507 177.293 169.577 177.055C169.647 176.816 169.683 176.555 169.683 176.27C169.683 176.016 169.651 175.771 169.589 175.537C169.526 175.299 169.431 175.088 169.302 174.904C169.173 174.717 169.011 174.57 168.815 174.465C168.624 174.355 168.396 174.301 168.13 174.301C167.829 174.301 167.548 174.375 167.286 174.523C167.028 174.668 166.815 174.859 166.647 175.098C166.483 175.332 166.39 175.588 166.366 175.865L165.792 175.859C165.847 175.422 165.948 175.049 166.097 174.74C166.249 174.428 166.437 174.174 166.659 173.979C166.886 173.779 167.138 173.635 167.415 173.545C167.696 173.451 167.993 173.404 168.306 173.404C168.731 173.404 169.099 173.484 169.407 173.645C169.716 173.805 169.97 174.02 170.169 174.289C170.368 174.555 170.515 174.855 170.608 175.191C170.706 175.523 170.755 175.865 170.755 176.217C170.755 176.619 170.698 176.996 170.585 177.348C170.472 177.699 170.302 178.008 170.075 178.273C169.853 178.539 169.577 178.746 169.249 178.895C168.921 179.043 168.54 179.117 168.106 179.117C167.646 179.117 167.243 179.023 166.899 178.836C166.556 178.645 166.271 178.391 166.044 178.074C165.817 177.758 165.647 177.406 165.534 177.02C165.421 176.633 165.364 176.24 165.364 175.842V175.332C165.364 174.73 165.425 174.141 165.546 173.562C165.667 172.984 165.876 172.461 166.173 171.992C166.474 171.523 166.89 171.15 167.421 170.873C167.952 170.596 168.63 170.457 169.454 170.457Z" fill="#172755"/>
<rect x="198.871" y="149" width="66" height="52" fill="white"/>
<path d="M228.106 170.422V179H227.022V171.775L224.837 172.572V171.594L227.937 170.422H228.106ZM236.808 170.469V171.078L233.274 179H232.132L235.659 171.359H231.042V170.469H236.808Z" fill="#172755"/>
<rect x="264.871" y="149" width="66" height="52" fill="white"/>
<circle cx="297.371" cy="174.5" r="19.5" fill="#EF2A82"/>
<path d="M294.106 170.422V179H293.022V171.775L290.837 172.572V171.594L293.937 170.422H294.106ZM302.673 176.691C302.673 177.211 302.552 177.652 302.31 178.016C302.071 178.375 301.747 178.648 301.337 178.836C300.931 179.023 300.472 179.117 299.96 179.117C299.448 179.117 298.987 179.023 298.577 178.836C298.167 178.648 297.843 178.375 297.604 178.016C297.366 177.652 297.247 177.211 297.247 176.691C297.247 176.352 297.312 176.041 297.44 175.76C297.573 175.475 297.759 175.227 297.997 175.016C298.239 174.805 298.524 174.643 298.853 174.529C299.185 174.412 299.55 174.354 299.948 174.354C300.472 174.354 300.938 174.455 301.349 174.658C301.759 174.857 302.081 175.133 302.315 175.484C302.554 175.836 302.673 176.238 302.673 176.691ZM301.583 176.668C301.583 176.352 301.515 176.072 301.378 175.83C301.241 175.584 301.05 175.393 300.804 175.256C300.558 175.119 300.272 175.051 299.948 175.051C299.616 175.051 299.329 175.119 299.087 175.256C298.849 175.393 298.663 175.584 298.53 175.83C298.397 176.072 298.331 176.352 298.331 176.668C298.331 176.996 298.396 177.277 298.524 177.512C298.657 177.742 298.845 177.92 299.087 178.045C299.333 178.166 299.624 178.227 299.96 178.227C300.296 178.227 300.585 178.166 300.827 178.045C301.069 177.92 301.255 177.742 301.384 177.512C301.517 177.277 301.583 176.996 301.583 176.668ZM302.474 172.689C302.474 173.104 302.364 173.477 302.146 173.809C301.927 174.141 301.628 174.402 301.249 174.594C300.87 174.785 300.44 174.881 299.96 174.881C299.472 174.881 299.036 174.785 298.653 174.594C298.274 174.402 297.978 174.141 297.763 173.809C297.548 173.477 297.44 173.104 297.44 172.689C297.44 172.193 297.548 171.771 297.763 171.424C297.981 171.076 298.28 170.811 298.659 170.627C299.038 170.443 299.47 170.352 299.954 170.352C300.442 170.352 300.876 170.443 301.255 170.627C301.634 170.811 301.931 171.076 302.146 171.424C302.364 171.771 302.474 172.193 302.474 172.689ZM301.39 172.707C301.39 172.422 301.329 172.17 301.208 171.951C301.087 171.732 300.919 171.561 300.704 171.436C300.489 171.307 300.239 171.242 299.954 171.242C299.669 171.242 299.419 171.303 299.204 171.424C298.993 171.541 298.827 171.709 298.706 171.928C298.589 172.146 298.53 172.406 298.53 172.707C298.53 173 298.589 173.256 298.706 173.475C298.827 173.693 298.995 173.863 299.21 173.984C299.425 174.105 299.675 174.166 299.96 174.166C300.245 174.166 300.493 174.105 300.704 173.984C300.919 173.863 301.087 173.693 301.208 173.475C301.329 173.256 301.39 173 301.39 172.707Z" fill="#EEEEF7"/>
<rect x="330.871" y="149" width="66" height="52" fill="white"/>
<path d="M360.106 170.422V179H359.022V171.775L356.837 172.572V171.594L359.937 170.422H360.106ZM364.372 178.092H364.483C365.108 178.092 365.616 178.004 366.007 177.828C366.397 177.652 366.698 177.416 366.909 177.119C367.12 176.822 367.265 176.488 367.343 176.117C367.421 175.742 367.46 175.357 367.46 174.963V173.656C367.46 173.27 367.415 172.926 367.325 172.625C367.239 172.324 367.118 172.072 366.962 171.869C366.81 171.666 366.636 171.512 366.44 171.406C366.245 171.301 366.038 171.248 365.819 171.248C365.569 171.248 365.345 171.299 365.146 171.4C364.95 171.498 364.784 171.637 364.647 171.816C364.515 171.996 364.413 172.207 364.343 172.449C364.272 172.691 364.237 172.955 364.237 173.24C364.237 173.494 364.269 173.74 364.331 173.979C364.394 174.217 364.489 174.432 364.618 174.623C364.747 174.814 364.907 174.967 365.099 175.08C365.294 175.189 365.522 175.244 365.784 175.244C366.026 175.244 366.253 175.197 366.464 175.104C366.679 175.006 366.868 174.875 367.032 174.711C367.2 174.543 367.333 174.354 367.431 174.143C367.532 173.932 367.591 173.711 367.606 173.48H368.122C368.122 173.805 368.058 174.125 367.929 174.441C367.804 174.754 367.628 175.039 367.401 175.297C367.175 175.555 366.909 175.762 366.604 175.918C366.3 176.07 365.968 176.146 365.608 176.146C365.187 176.146 364.821 176.064 364.513 175.9C364.204 175.736 363.95 175.518 363.751 175.244C363.556 174.971 363.409 174.666 363.312 174.33C363.218 173.99 363.171 173.646 363.171 173.299C363.171 172.893 363.228 172.512 363.341 172.156C363.454 171.801 363.622 171.488 363.845 171.219C364.067 170.945 364.343 170.732 364.671 170.58C365.003 170.428 365.386 170.352 365.819 170.352C366.308 170.352 366.724 170.449 367.067 170.645C367.411 170.84 367.69 171.102 367.905 171.43C368.124 171.758 368.284 172.127 368.386 172.537C368.487 172.947 368.538 173.369 368.538 173.803V174.195C368.538 174.637 368.509 175.086 368.45 175.543C368.396 175.996 368.288 176.43 368.128 176.844C367.972 177.258 367.743 177.629 367.442 177.957C367.142 178.281 366.749 178.539 366.265 178.73C365.784 178.918 365.19 179.012 364.483 179.012H364.372V178.092Z" fill="#172755"/>
<rect x="396.871" y="149" width="66" height="52" fill="white"/>
<path d="M428.134 178.109V179H422.55V178.221L425.345 175.109C425.688 174.727 425.954 174.402 426.142 174.137C426.333 173.867 426.466 173.627 426.54 173.416C426.618 173.201 426.657 172.982 426.657 172.76C426.657 172.479 426.599 172.225 426.481 171.998C426.368 171.768 426.2 171.584 425.978 171.447C425.755 171.311 425.485 171.242 425.169 171.242C424.79 171.242 424.474 171.316 424.22 171.465C423.97 171.609 423.782 171.812 423.657 172.074C423.532 172.336 423.47 172.637 423.47 172.977H422.386C422.386 172.496 422.491 172.057 422.702 171.658C422.913 171.26 423.226 170.943 423.64 170.709C424.054 170.471 424.563 170.352 425.169 170.352C425.708 170.352 426.169 170.447 426.552 170.639C426.935 170.826 427.228 171.092 427.431 171.436C427.638 171.775 427.741 172.174 427.741 172.631C427.741 172.881 427.698 173.135 427.612 173.393C427.53 173.646 427.415 173.9 427.267 174.154C427.122 174.408 426.952 174.658 426.757 174.904C426.565 175.15 426.36 175.393 426.142 175.631L423.856 178.109H428.134ZM434.649 174.055V175.355C434.649 176.055 434.587 176.645 434.462 177.125C434.337 177.605 434.157 177.992 433.923 178.285C433.688 178.578 433.405 178.791 433.073 178.924C432.745 179.053 432.374 179.117 431.96 179.117C431.632 179.117 431.329 179.076 431.052 178.994C430.774 178.912 430.524 178.781 430.302 178.602C430.083 178.418 429.896 178.18 429.739 177.887C429.583 177.594 429.464 177.238 429.382 176.82C429.3 176.402 429.259 175.914 429.259 175.355V174.055C429.259 173.355 429.321 172.77 429.446 172.297C429.575 171.824 429.757 171.445 429.991 171.16C430.226 170.871 430.507 170.664 430.835 170.539C431.167 170.414 431.538 170.352 431.948 170.352C432.28 170.352 432.585 170.393 432.862 170.475C433.144 170.553 433.394 170.68 433.612 170.855C433.831 171.027 434.017 171.258 434.169 171.547C434.325 171.832 434.444 172.182 434.526 172.596C434.608 173.01 434.649 173.496 434.649 174.055ZM433.56 175.531V173.873C433.56 173.49 433.536 173.154 433.489 172.865C433.446 172.572 433.382 172.322 433.296 172.115C433.21 171.908 433.101 171.74 432.968 171.611C432.839 171.482 432.688 171.389 432.517 171.33C432.349 171.268 432.159 171.236 431.948 171.236C431.69 171.236 431.462 171.285 431.263 171.383C431.063 171.477 430.896 171.627 430.759 171.834C430.626 172.041 430.524 172.312 430.454 172.648C430.384 172.984 430.349 173.393 430.349 173.873V175.531C430.349 175.914 430.37 176.252 430.413 176.545C430.46 176.838 430.528 177.092 430.618 177.307C430.708 177.518 430.817 177.691 430.946 177.828C431.075 177.965 431.224 178.066 431.392 178.133C431.563 178.195 431.753 178.227 431.96 178.227C432.226 178.227 432.458 178.176 432.657 178.074C432.856 177.973 433.022 177.814 433.155 177.6C433.292 177.381 433.394 177.102 433.46 176.762C433.526 176.418 433.56 176.008 433.56 175.531Z" fill="#172755"/>
<rect x="0.870605" y="201" width="66" height="52" fill="white"/>
<path d="M32.1338 230.109V231H26.5498V230.221L29.3447 227.109C29.6885 226.727 29.9541 226.402 30.1416 226.137C30.333 225.867 30.4658 225.627 30.54 225.416C30.6182 225.201 30.6572 224.982 30.6572 224.76C30.6572 224.479 30.5986 224.225 30.4814 223.998C30.3682 223.768 30.2002 223.584 29.9775 223.447C29.7549 223.311 29.4854 223.242 29.1689 223.242C28.79 223.242 28.4736 223.316 28.2197 223.465C27.9697 223.609 27.7822 223.812 27.6572 224.074C27.5322 224.336 27.4697 224.637 27.4697 224.977H26.3857C26.3857 224.496 26.4912 224.057 26.7021 223.658C26.9131 223.26 27.2256 222.943 27.6396 222.709C28.0537 222.471 28.5635 222.352 29.1689 222.352C29.708 222.352 30.1689 222.447 30.5518 222.639C30.9346 222.826 31.2275 223.092 31.4307 223.436C31.6377 223.775 31.7412 224.174 31.7412 224.631C31.7412 224.881 31.6982 225.135 31.6123 225.393C31.5303 225.646 31.415 225.9 31.2666 226.154C31.1221 226.408 30.9521 226.658 30.7568 226.904C30.5654 227.15 30.3604 227.393 30.1416 227.631L27.8564 230.109H32.1338ZM36.8564 222.422V231H35.7725V223.775L33.5869 224.572V223.594L36.6865 222.422H36.8564Z" fill="#172755"/>
<rect x="66.8706" y="201" width="66" height="52" fill="white"/>
<path d="M98.1338 230.109V231H92.5498V230.221L95.3447 227.109C95.6885 226.727 95.9541 226.402 96.1416 226.137C96.333 225.867 96.4658 225.627 96.54 225.416C96.6182 225.201 96.6572 224.982 96.6572 224.76C96.6572 224.479 96.5986 224.225 96.4814 223.998C96.3682 223.768 96.2002 223.584 95.9775 223.447C95.7549 223.311 95.4854 223.242 95.1689 223.242C94.79 223.242 94.4736 223.316 94.2197 223.465C93.9697 223.609 93.7822 223.812 93.6572 224.074C93.5322 224.336 93.4697 224.637 93.4697 224.977H92.3857C92.3857 224.496 92.4912 224.057 92.7021 223.658C92.9131 223.26 93.2256 222.943 93.6396 222.709C94.0537 222.471 94.5635 222.352 95.1689 222.352C95.708 222.352 96.1689 222.447 96.5518 222.639C96.9346 222.826 97.2275 223.092 97.4307 223.436C97.6377 223.775 97.7412 224.174 97.7412 224.631C97.7412 224.881 97.6982 225.135 97.6123 225.393C97.5303 225.646 97.415 225.9 97.2666 226.154C97.1221 226.408 96.9521 226.658 96.7568 226.904C96.5654 227.15 96.3604 227.393 96.1416 227.631L93.8564 230.109H98.1338ZM104.884 230.109V231H99.2998V230.221L102.095 227.109C102.438 226.727 102.704 226.402 102.892 226.137C103.083 225.867 103.216 225.627 103.29 225.416C103.368 225.201 103.407 224.982 103.407 224.76C103.407 224.479 103.349 224.225 103.231 223.998C103.118 223.768 102.95 223.584 102.728 223.447C102.505 223.311 102.235 223.242 101.919 223.242C101.54 223.242 101.224 223.316 100.97 223.465C100.72 223.609 100.532 223.812 100.407 224.074C100.282 224.336 100.22 224.637 100.22 224.977H99.1357C99.1357 224.496 99.2412 224.057 99.4521 223.658C99.6631 223.26 99.9756 222.943 100.39 222.709C100.804 222.471 101.313 222.352 101.919 222.352C102.458 222.352 102.919 222.447 103.302 222.639C103.685 222.826 103.978 223.092 104.181 223.436C104.388 223.775 104.491 224.174 104.491 224.631C104.491 224.881 104.448 225.135 104.362 225.393C104.28 225.646 104.165 225.9 104.017 226.154C103.872 226.408 103.702 226.658 103.507 226.904C103.315 227.15 103.11 227.393 102.892 227.631L100.606 230.109H104.884Z" fill="#172755"/>
<rect x="132.871" y="201" width="66" height="52" fill="white"/>
<path d="M164.134 230.109V231H158.55V230.221L161.345 227.109C161.688 226.727 161.954 226.402 162.142 226.137C162.333 225.867 162.466 225.627 162.54 225.416C162.618 225.201 162.657 224.982 162.657 224.76C162.657 224.479 162.599 224.225 162.481 223.998C162.368 223.768 162.2 223.584 161.978 223.447C161.755 223.311 161.485 223.242 161.169 223.242C160.79 223.242 160.474 223.316 160.22 223.465C159.97 223.609 159.782 223.812 159.657 224.074C159.532 224.336 159.47 224.637 159.47 224.977H158.386C158.386 224.496 158.491 224.057 158.702 223.658C158.913 223.26 159.226 222.943 159.64 222.709C160.054 222.471 160.563 222.352 161.169 222.352C161.708 222.352 162.169 222.447 162.552 222.639C162.935 222.826 163.228 223.092 163.431 223.436C163.638 223.775 163.741 224.174 163.741 224.631C163.741 224.881 163.698 225.135 163.612 225.393C163.53 225.646 163.415 225.9 163.267 226.154C163.122 226.408 162.952 226.658 162.757 226.904C162.565 227.15 162.36 227.393 162.142 227.631L159.856 230.109H164.134ZM166.876 226.201H167.649C168.028 226.201 168.341 226.139 168.587 226.014C168.837 225.885 169.022 225.711 169.144 225.492C169.269 225.27 169.331 225.02 169.331 224.742C169.331 224.414 169.276 224.139 169.167 223.916C169.058 223.693 168.894 223.525 168.675 223.412C168.456 223.299 168.179 223.242 167.843 223.242C167.538 223.242 167.269 223.303 167.034 223.424C166.804 223.541 166.622 223.709 166.489 223.928C166.36 224.146 166.296 224.404 166.296 224.701H165.212C165.212 224.268 165.321 223.873 165.54 223.518C165.759 223.162 166.065 222.879 166.46 222.668C166.858 222.457 167.319 222.352 167.843 222.352C168.358 222.352 168.81 222.443 169.196 222.627C169.583 222.807 169.884 223.076 170.099 223.436C170.313 223.791 170.421 224.234 170.421 224.766C170.421 224.98 170.37 225.211 170.269 225.457C170.171 225.699 170.017 225.926 169.806 226.137C169.599 226.348 169.329 226.521 168.997 226.658C168.665 226.791 168.267 226.857 167.802 226.857H166.876V226.201ZM166.876 227.092V226.441H167.802C168.345 226.441 168.794 226.506 169.149 226.635C169.505 226.764 169.784 226.936 169.987 227.15C170.194 227.365 170.339 227.602 170.421 227.859C170.507 228.113 170.55 228.367 170.55 228.621C170.55 229.02 170.481 229.373 170.345 229.682C170.212 229.99 170.022 230.252 169.776 230.467C169.534 230.682 169.249 230.844 168.921 230.953C168.593 231.062 168.235 231.117 167.849 231.117C167.478 231.117 167.128 231.064 166.8 230.959C166.476 230.854 166.188 230.701 165.938 230.502C165.688 230.299 165.493 230.051 165.353 229.758C165.212 229.461 165.142 229.123 165.142 228.744H166.226C166.226 229.041 166.29 229.301 166.419 229.523C166.552 229.746 166.739 229.92 166.981 230.045C167.228 230.166 167.517 230.227 167.849 230.227C168.181 230.227 168.466 230.17 168.704 230.057C168.946 229.939 169.132 229.764 169.261 229.529C169.394 229.295 169.46 229 169.46 228.645C169.46 228.289 169.386 227.998 169.237 227.771C169.089 227.541 168.878 227.371 168.604 227.262C168.335 227.148 168.017 227.092 167.649 227.092H166.876Z" fill="#172755"/>
<rect x="198.871" y="201" width="66" height="52" fill="white"/>
<path d="M230.134 230.109V231H224.55V230.221L227.345 227.109C227.688 226.727 227.954 226.402 228.142 226.137C228.333 225.867 228.466 225.627 228.54 225.416C228.618 225.201 228.657 224.982 228.657 224.76C228.657 224.479 228.599 224.225 228.481 223.998C228.368 223.768 228.2 223.584 227.978 223.447C227.755 223.311 227.485 223.242 227.169 223.242C226.79 223.242 226.474 223.316 226.22 223.465C225.97 223.609 225.782 223.812 225.657 224.074C225.532 224.336 225.47 224.637 225.47 224.977H224.386C224.386 224.496 224.491 224.057 224.702 223.658C224.913 223.26 225.226 222.943 225.64 222.709C226.054 222.471 226.563 222.352 227.169 222.352C227.708 222.352 228.169 222.447 228.552 222.639C228.935 222.826 229.228 223.092 229.431 223.436C229.638 223.775 229.741 224.174 229.741 224.631C229.741 224.881 229.698 225.135 229.612 225.393C229.53 225.646 229.415 225.9 229.267 226.154C229.122 226.408 228.952 226.658 228.757 226.904C228.565 227.15 228.36 227.393 228.142 227.631L225.856 230.109H230.134ZM237.06 228.129V229.02H230.896V228.381L234.716 222.469H235.601L234.651 224.18L232.126 228.129H237.06ZM235.87 222.469V231H234.786V222.469H235.87Z" fill="#172755"/>
<rect x="264.871" y="201" width="66" height="52" fill="white"/>
<path d="M296.134 230.109V231H290.55V230.221L293.345 227.109C293.688 226.727 293.954 226.402 294.142 226.137C294.333 225.867 294.466 225.627 294.54 225.416C294.618 225.201 294.657 224.982 294.657 224.76C294.657 224.479 294.599 224.225 294.481 223.998C294.368 223.768 294.2 223.584 293.978 223.447C293.755 223.311 293.485 223.242 293.169 223.242C292.79 223.242 292.474 223.316 292.22 223.465C291.97 223.609 291.782 223.812 291.657 224.074C291.532 224.336 291.47 224.637 291.47 224.977H290.386C290.386 224.496 290.491 224.057 290.702 223.658C290.913 223.26 291.226 222.943 291.64 222.709C292.054 222.471 292.563 222.352 293.169 222.352C293.708 222.352 294.169 222.447 294.552 222.639C294.935 222.826 295.228 223.092 295.431 223.436C295.638 223.775 295.741 224.174 295.741 224.631C295.741 224.881 295.698 225.135 295.612 225.393C295.53 225.646 295.415 225.9 295.267 226.154C295.122 226.408 294.952 226.658 294.757 226.904C294.565 227.15 294.36 227.393 294.142 227.631L291.856 230.109H296.134ZM298.665 226.939L297.798 226.717L298.226 222.469H302.603V223.471H299.146L298.888 225.791C299.044 225.701 299.241 225.617 299.479 225.539C299.722 225.461 299.999 225.422 300.312 225.422C300.706 225.422 301.06 225.49 301.372 225.627C301.685 225.76 301.95 225.951 302.169 226.201C302.392 226.451 302.562 226.752 302.679 227.104C302.796 227.455 302.854 227.848 302.854 228.281C302.854 228.691 302.798 229.068 302.685 229.412C302.575 229.756 302.409 230.057 302.187 230.314C301.964 230.568 301.683 230.766 301.343 230.906C301.007 231.047 300.61 231.117 300.153 231.117C299.81 231.117 299.483 231.07 299.175 230.977C298.87 230.879 298.597 230.732 298.354 230.537C298.116 230.338 297.921 230.092 297.769 229.799C297.62 229.502 297.526 229.154 297.487 228.756H298.519C298.565 229.076 298.659 229.346 298.8 229.564C298.94 229.783 299.124 229.949 299.351 230.062C299.581 230.172 299.849 230.227 300.153 230.227C300.411 230.227 300.64 230.182 300.839 230.092C301.038 230.002 301.206 229.873 301.343 229.705C301.479 229.537 301.583 229.334 301.653 229.096C301.728 228.857 301.765 228.59 301.765 228.293C301.765 228.023 301.728 227.773 301.653 227.543C301.579 227.312 301.468 227.111 301.319 226.939C301.175 226.768 300.997 226.635 300.786 226.541C300.575 226.443 300.333 226.395 300.06 226.395C299.696 226.395 299.421 226.443 299.233 226.541C299.05 226.639 298.86 226.771 298.665 226.939Z" fill="#172755"/>
<rect x="330.871" y="201" width="66" height="52" fill="white"/>
<path d="M362.134 230.109V231H356.55V230.221L359.345 227.109C359.688 226.727 359.954 226.402 360.142 226.137C360.333 225.867 360.466 225.627 360.54 225.416C360.618 225.201 360.657 224.982 360.657 224.76C360.657 224.479 360.599 224.225 360.481 223.998C360.368 223.768 360.2 223.584 359.978 223.447C359.755 223.311 359.485 223.242 359.169 223.242C358.79 223.242 358.474 223.316 358.22 223.465C357.97 223.609 357.782 223.812 357.657 224.074C357.532 224.336 357.47 224.637 357.47 224.977H356.386C356.386 224.496 356.491 224.057 356.702 223.658C356.913 223.26 357.226 222.943 357.64 222.709C358.054 222.471 358.563 222.352 359.169 222.352C359.708 222.352 360.169 222.447 360.552 222.639C360.935 222.826 361.228 223.092 361.431 223.436C361.638 223.775 361.741 224.174 361.741 224.631C361.741 224.881 361.698 225.135 361.612 225.393C361.53 225.646 361.415 225.9 361.267 226.154C361.122 226.408 360.952 226.658 360.757 226.904C360.565 227.15 360.36 227.393 360.142 227.631L357.856 230.109H362.134ZM367.454 222.457H367.548V223.377H367.454C366.88 223.377 366.399 223.471 366.013 223.658C365.626 223.842 365.319 224.09 365.093 224.402C364.866 224.711 364.702 225.059 364.601 225.445C364.503 225.832 364.454 226.225 364.454 226.623V227.877C364.454 228.256 364.499 228.592 364.589 228.885C364.679 229.174 364.802 229.418 364.958 229.617C365.114 229.816 365.29 229.967 365.485 230.068C365.685 230.17 365.892 230.221 366.106 230.221C366.356 230.221 366.579 230.174 366.774 230.08C366.97 229.982 367.134 229.848 367.267 229.676C367.403 229.5 367.507 229.293 367.577 229.055C367.647 228.816 367.683 228.555 367.683 228.27C367.683 228.016 367.651 227.771 367.589 227.537C367.526 227.299 367.431 227.088 367.302 226.904C367.173 226.717 367.011 226.57 366.815 226.465C366.624 226.355 366.396 226.301 366.13 226.301C365.829 226.301 365.548 226.375 365.286 226.523C365.028 226.668 364.815 226.859 364.647 227.098C364.483 227.332 364.39 227.588 364.366 227.865L363.792 227.859C363.847 227.422 363.948 227.049 364.097 226.74C364.249 226.428 364.437 226.174 364.659 225.979C364.886 225.779 365.138 225.635 365.415 225.545C365.696 225.451 365.993 225.404 366.306 225.404C366.731 225.404 367.099 225.484 367.407 225.645C367.716 225.805 367.97 226.02 368.169 226.289C368.368 226.555 368.515 226.855 368.608 227.191C368.706 227.523 368.755 227.865 368.755 228.217C368.755 228.619 368.698 228.996 368.585 229.348C368.472 229.699 368.302 230.008 368.075 230.273C367.853 230.539 367.577 230.746 367.249 230.895C366.921 231.043 366.54 231.117 366.106 231.117C365.646 231.117 365.243 231.023 364.899 230.836C364.556 230.645 364.271 230.391 364.044 230.074C363.817 229.758 363.647 229.406 363.534 229.02C363.421 228.633 363.364 228.24 363.364 227.842V227.332C363.364 226.73 363.425 226.141 363.546 225.562C363.667 224.984 363.876 224.461 364.173 223.992C364.474 223.523 364.89 223.15 365.421 222.873C365.952 222.596 366.63 222.457 367.454 222.457Z" fill="#172755"/>
<rect x="396.871" y="201" width="66" height="52" fill="white"/>
<path d="M428.134 230.109V231H422.55V230.221L425.345 227.109C425.688 226.727 425.954 226.402 426.142 226.137C426.333 225.867 426.466 225.627 426.54 225.416C426.618 225.201 426.657 224.982 426.657 224.76C426.657 224.479 426.599 224.225 426.481 223.998C426.368 223.768 426.2 223.584 425.978 223.447C425.755 223.311 425.485 223.242 425.169 223.242C424.79 223.242 424.474 223.316 424.22 223.465C423.97 223.609 423.782 223.812 423.657 224.074C423.532 224.336 423.47 224.637 423.47 224.977H422.386C422.386 224.496 422.491 224.057 422.702 223.658C422.913 223.26 423.226 222.943 423.64 222.709C424.054 222.471 424.563 222.352 425.169 222.352C425.708 222.352 426.169 222.447 426.552 222.639C426.935 222.826 427.228 223.092 427.431 223.436C427.638 223.775 427.741 224.174 427.741 224.631C427.741 224.881 427.698 225.135 427.612 225.393C427.53 225.646 427.415 225.9 427.267 226.154C427.122 226.408 426.952 226.658 426.757 226.904C426.565 227.15 426.36 227.393 426.142 227.631L423.856 230.109H428.134ZM434.808 222.469V223.078L431.274 231H430.132L433.659 223.359H429.042V222.469H434.808Z" fill="#172755"/>
<rect x="0.870605" y="253" width="66" height="52" fill="white"/>
<path d="M32.1338 282.109V283H26.5498V282.221L29.3447 279.109C29.6885 278.727 29.9541 278.402 30.1416 278.137C30.333 277.867 30.4658 277.627 30.54 277.416C30.6182 277.201 30.6572 276.982 30.6572 276.76C30.6572 276.479 30.5986 276.225 30.4814 275.998C30.3682 275.768 30.2002 275.584 29.9775 275.447C29.7549 275.311 29.4854 275.242 29.1689 275.242C28.79 275.242 28.4736 275.316 28.2197 275.465C27.9697 275.609 27.7822 275.812 27.6572 276.074C27.5322 276.336 27.4697 276.637 27.4697 276.977H26.3857C26.3857 276.496 26.4912 276.057 26.7021 275.658C26.9131 275.26 27.2256 274.943 27.6396 274.709C28.0537 274.471 28.5635 274.352 29.1689 274.352C29.708 274.352 30.1689 274.447 30.5518 274.639C30.9346 274.826 31.2275 275.092 31.4307 275.436C31.6377 275.775 31.7412 276.174 31.7412 276.631C31.7412 276.881 31.6982 277.135 31.6123 277.393C31.5303 277.646 31.415 277.9 31.2666 278.154C31.1221 278.408 30.9521 278.658 30.7568 278.904C30.5654 279.15 30.3604 279.393 30.1416 279.631L27.8564 282.109H32.1338ZM38.6729 280.691C38.6729 281.211 38.5518 281.652 38.3096 282.016C38.0713 282.375 37.7471 282.648 37.3369 282.836C36.9307 283.023 36.4717 283.117 35.96 283.117C35.4482 283.117 34.9873 283.023 34.5771 282.836C34.167 282.648 33.8428 282.375 33.6045 282.016C33.3662 281.652 33.2471 281.211 33.2471 280.691C33.2471 280.352 33.3115 280.041 33.4404 279.76C33.5732 279.475 33.7588 279.227 33.9971 279.016C34.2393 278.805 34.5244 278.643 34.8525 278.529C35.1846 278.412 35.5498 278.354 35.9482 278.354C36.4717 278.354 36.9385 278.455 37.3486 278.658C37.7588 278.857 38.0811 279.133 38.3154 279.484C38.5537 279.836 38.6729 280.238 38.6729 280.691ZM37.583 280.668C37.583 280.352 37.5146 280.072 37.3779 279.83C37.2412 279.584 37.0498 279.393 36.8037 279.256C36.5576 279.119 36.2725 279.051 35.9482 279.051C35.6162 279.051 35.3291 279.119 35.0869 279.256C34.8486 279.393 34.6631 279.584 34.5303 279.83C34.3975 280.072 34.3311 280.352 34.3311 280.668C34.3311 280.996 34.3955 281.277 34.5244 281.512C34.6572 281.742 34.8447 281.92 35.0869 282.045C35.333 282.166 35.624 282.227 35.96 282.227C36.2959 282.227 36.585 282.166 36.8271 282.045C37.0693 281.92 37.2549 281.742 37.3838 281.512C37.5166 281.277 37.583 280.996 37.583 280.668ZM38.4736 276.689C38.4736 277.104 38.3643 277.477 38.1455 277.809C37.9268 278.141 37.6279 278.402 37.249 278.594C36.8701 278.785 36.4404 278.881 35.96 278.881C35.4717 278.881 35.0361 278.785 34.6533 278.594C34.2744 278.402 33.9775 278.141 33.7627 277.809C33.5479 277.477 33.4404 277.104 33.4404 276.689C33.4404 276.193 33.5479 275.771 33.7627 275.424C33.9814 275.076 34.2803 274.811 34.6592 274.627C35.0381 274.443 35.4697 274.352 35.9541 274.352C36.4424 274.352 36.876 274.443 37.2549 274.627C37.6338 274.811 37.9307 275.076 38.1455 275.424C38.3643 275.771 38.4736 276.193 38.4736 276.689ZM37.3896 276.707C37.3896 276.422 37.3291 276.17 37.208 275.951C37.0869 275.732 36.9189 275.561 36.7041 275.436C36.4893 275.307 36.2393 275.242 35.9541 275.242C35.6689 275.242 35.4189 275.303 35.2041 275.424C34.9932 275.541 34.8271 275.709 34.7061 275.928C34.5889 276.146 34.5303 276.406 34.5303 276.707C34.5303 277 34.5889 277.256 34.7061 277.475C34.8271 277.693 34.9951 277.863 35.21 277.984C35.4248 278.105 35.6748 278.166 35.96 278.166C36.2451 278.166 36.4932 278.105 36.7041 277.984C36.9189 277.863 37.0869 277.693 37.208 277.475C37.3291 277.256 37.3896 277 37.3896 276.707Z" fill="#172755"/>
<rect x="66.8706" y="253" width="66" height="52" fill="white"/>
<path d="M98.1338 282.109V283H92.5498V282.221L95.3447 279.109C95.6885 278.727 95.9541 278.402 96.1416 278.137C96.333 277.867 96.4658 277.627 96.54 277.416C96.6182 277.201 96.6572 276.982 96.6572 276.76C96.6572 276.479 96.5986 276.225 96.4814 275.998C96.3682 275.768 96.2002 275.584 95.9775 275.447C95.7549 275.311 95.4854 275.242 95.1689 275.242C94.79 275.242 94.4736 275.316 94.2197 275.465C93.9697 275.609 93.7822 275.812 93.6572 276.074C93.5322 276.336 93.4697 276.637 93.4697 276.977H92.3857C92.3857 276.496 92.4912 276.057 92.7021 275.658C92.9131 275.26 93.2256 274.943 93.6396 274.709C94.0537 274.471 94.5635 274.352 95.1689 274.352C95.708 274.352 96.1689 274.447 96.5518 274.639C96.9346 274.826 97.2275 275.092 97.4307 275.436C97.6377 275.775 97.7412 276.174 97.7412 276.631C97.7412 276.881 97.6982 277.135 97.6123 277.393C97.5303 277.646 97.415 277.9 97.2666 278.154C97.1221 278.408 96.9521 278.658 96.7568 278.904C96.5654 279.15 96.3604 279.393 96.1416 279.631L93.8564 282.109H98.1338ZM100.372 282.092H100.483C101.108 282.092 101.616 282.004 102.007 281.828C102.397 281.652 102.698 281.416 102.909 281.119C103.12 280.822 103.265 280.488 103.343 280.117C103.421 279.742 103.46 279.357 103.46 278.963V277.656C103.46 277.27 103.415 276.926 103.325 276.625C103.239 276.324 103.118 276.072 102.962 275.869C102.81 275.666 102.636 275.512 102.44 275.406C102.245 275.301 102.038 275.248 101.819 275.248C101.569 275.248 101.345 275.299 101.146 275.4C100.95 275.498 100.784 275.637 100.647 275.816C100.515 275.996 100.413 276.207 100.343 276.449C100.272 276.691 100.237 276.955 100.237 277.24C100.237 277.494 100.269 277.74 100.331 277.979C100.394 278.217 100.489 278.432 100.618 278.623C100.747 278.814 100.907 278.967 101.099 279.08C101.294 279.189 101.522 279.244 101.784 279.244C102.026 279.244 102.253 279.197 102.464 279.104C102.679 279.006 102.868 278.875 103.032 278.711C103.2 278.543 103.333 278.354 103.431 278.143C103.532 277.932 103.591 277.711 103.606 277.48H104.122C104.122 277.805 104.058 278.125 103.929 278.441C103.804 278.754 103.628 279.039 103.401 279.297C103.175 279.555 102.909 279.762 102.604 279.918C102.3 280.07 101.968 280.146 101.608 280.146C101.187 280.146 100.821 280.064 100.513 279.9C100.204 279.736 99.9502 279.518 99.751 279.244C99.5557 278.971 99.4092 278.666 99.3115 278.33C99.2178 277.99 99.1709 277.646 99.1709 277.299C99.1709 276.893 99.2275 276.512 99.3408 276.156C99.4541 275.801 99.6221 275.488 99.8447 275.219C100.067 274.945 100.343 274.732 100.671 274.58C101.003 274.428 101.386 274.352 101.819 274.352C102.308 274.352 102.724 274.449 103.067 274.645C103.411 274.84 103.69 275.102 103.905 275.43C104.124 275.758 104.284 276.127 104.386 276.537C104.487 276.947 104.538 277.369 104.538 277.803V278.195C104.538 278.637 104.509 279.086 104.45 279.543C104.396 279.996 104.288 280.43 104.128 280.844C103.972 281.258 103.743 281.629 103.442 281.957C103.142 282.281 102.749 282.539 102.265 282.73C101.784 282.918 101.19 283.012 100.483 283.012H100.372V282.092Z" fill="#172755"/>
<rect x="132.871" y="253" width="66" height="52" fill="white"/>
<path d="M160.126 278.201H160.899C161.278 278.201 161.591 278.139 161.837 278.014C162.087 277.885 162.272 277.711 162.394 277.492C162.519 277.27 162.581 277.02 162.581 276.742C162.581 276.414 162.526 276.139 162.417 275.916C162.308 275.693 162.144 275.525 161.925 275.412C161.706 275.299 161.429 275.242 161.093 275.242C160.788 275.242 160.519 275.303 160.284 275.424C160.054 275.541 159.872 275.709 159.739 275.928C159.61 276.146 159.546 276.404 159.546 276.701H158.462C158.462 276.268 158.571 275.873 158.79 275.518C159.009 275.162 159.315 274.879 159.71 274.668C160.108 274.457 160.569 274.352 161.093 274.352C161.608 274.352 162.06 274.443 162.446 274.627C162.833 274.807 163.134 275.076 163.349 275.436C163.563 275.791 163.671 276.234 163.671 276.766C163.671 276.98 163.62 277.211 163.519 277.457C163.421 277.699 163.267 277.926 163.056 278.137C162.849 278.348 162.579 278.521 162.247 278.658C161.915 278.791 161.517 278.857 161.052 278.857H160.126V278.201ZM160.126 279.092V278.441H161.052C161.595 278.441 162.044 278.506 162.399 278.635C162.755 278.764 163.034 278.936 163.237 279.15C163.444 279.365 163.589 279.602 163.671 279.859C163.757 280.113 163.8 280.367 163.8 280.621C163.8 281.02 163.731 281.373 163.595 281.682C163.462 281.99 163.272 282.252 163.026 282.467C162.784 282.682 162.499 282.844 162.171 282.953C161.843 283.062 161.485 283.117 161.099 283.117C160.728 283.117 160.378 283.064 160.05 282.959C159.726 282.854 159.438 282.701 159.188 282.502C158.938 282.299 158.743 282.051 158.603 281.758C158.462 281.461 158.392 281.123 158.392 280.744H159.476C159.476 281.041 159.54 281.301 159.669 281.523C159.802 281.746 159.989 281.92 160.231 282.045C160.478 282.166 160.767 282.227 161.099 282.227C161.431 282.227 161.716 282.17 161.954 282.057C162.196 281.939 162.382 281.764 162.511 281.529C162.644 281.295 162.71 281 162.71 280.645C162.71 280.289 162.636 279.998 162.487 279.771C162.339 279.541 162.128 279.371 161.854 279.262C161.585 279.148 161.267 279.092 160.899 279.092H160.126ZM170.649 278.055V279.355C170.649 280.055 170.587 280.645 170.462 281.125C170.337 281.605 170.157 281.992 169.923 282.285C169.688 282.578 169.405 282.791 169.073 282.924C168.745 283.053 168.374 283.117 167.96 283.117C167.632 283.117 167.329 283.076 167.052 282.994C166.774 282.912 166.524 282.781 166.302 282.602C166.083 282.418 165.896 282.18 165.739 281.887C165.583 281.594 165.464 281.238 165.382 280.82C165.3 280.402 165.259 279.914 165.259 279.355V278.055C165.259 277.355 165.321 276.77 165.446 276.297C165.575 275.824 165.757 275.445 165.991 275.16C166.226 274.871 166.507 274.664 166.835 274.539C167.167 274.414 167.538 274.352 167.948 274.352C168.28 274.352 168.585 274.393 168.862 274.475C169.144 274.553 169.394 274.68 169.612 274.855C169.831 275.027 170.017 275.258 170.169 275.547C170.325 275.832 170.444 276.182 170.526 276.596C170.608 277.01 170.649 277.496 170.649 278.055ZM169.56 279.531V277.873C169.56 277.49 169.536 277.154 169.489 276.865C169.446 276.572 169.382 276.322 169.296 276.115C169.21 275.908 169.101 275.74 168.968 275.611C168.839 275.482 168.688 275.389 168.517 275.33C168.349 275.268 168.159 275.236 167.948 275.236C167.69 275.236 167.462 275.285 167.263 275.383C167.063 275.477 166.896 275.627 166.759 275.834C166.626 276.041 166.524 276.312 166.454 276.648C166.384 276.984 166.349 277.393 166.349 277.873V279.531C166.349 279.914 166.37 280.252 166.413 280.545C166.46 280.838 166.528 281.092 166.618 281.307C166.708 281.518 166.817 281.691 166.946 281.828C167.075 281.965 167.224 282.066 167.392 282.133C167.563 282.195 167.753 282.227 167.96 282.227C168.226 282.227 168.458 282.176 168.657 282.074C168.856 281.973 169.022 281.814 169.155 281.6C169.292 281.381 169.394 281.102 169.46 280.762C169.526 280.418 169.56 280.008 169.56 279.531Z" fill="#172755"/>
<rect x="198.871" y="253" width="66" height="52" fill="white"/>
<path d="M226.126 278.201H226.899C227.278 278.201 227.591 278.139 227.837 278.014C228.087 277.885 228.272 277.711 228.394 277.492C228.519 277.27 228.581 277.02 228.581 276.742C228.581 276.414 228.526 276.139 228.417 275.916C228.308 275.693 228.144 275.525 227.925 275.412C227.706 275.299 227.429 275.242 227.093 275.242C226.788 275.242 226.519 275.303 226.284 275.424C226.054 275.541 225.872 275.709 225.739 275.928C225.61 276.146 225.546 276.404 225.546 276.701H224.462C224.462 276.268 224.571 275.873 224.79 275.518C225.009 275.162 225.315 274.879 225.71 274.668C226.108 274.457 226.569 274.352 227.093 274.352C227.608 274.352 228.06 274.443 228.446 274.627C228.833 274.807 229.134 275.076 229.349 275.436C229.563 275.791 229.671 276.234 229.671 276.766C229.671 276.98 229.62 277.211 229.519 277.457C229.421 277.699 229.267 277.926 229.056 278.137C228.849 278.348 228.579 278.521 228.247 278.658C227.915 278.791 227.517 278.857 227.052 278.857H226.126V278.201ZM226.126 279.092V278.441H227.052C227.595 278.441 228.044 278.506 228.399 278.635C228.755 278.764 229.034 278.936 229.237 279.15C229.444 279.365 229.589 279.602 229.671 279.859C229.757 280.113 229.8 280.367 229.8 280.621C229.8 281.02 229.731 281.373 229.595 281.682C229.462 281.99 229.272 282.252 229.026 282.467C228.784 282.682 228.499 282.844 228.171 282.953C227.843 283.062 227.485 283.117 227.099 283.117C226.728 283.117 226.378 283.064 226.05 282.959C225.726 282.854 225.438 282.701 225.188 282.502C224.938 282.299 224.743 282.051 224.603 281.758C224.462 281.461 224.392 281.123 224.392 280.744H225.476C225.476 281.041 225.54 281.301 225.669 281.523C225.802 281.746 225.989 281.92 226.231 282.045C226.478 282.166 226.767 282.227 227.099 282.227C227.431 282.227 227.716 282.17 227.954 282.057C228.196 281.939 228.382 281.764 228.511 281.529C228.644 281.295 228.71 281 228.71 280.645C228.71 280.289 228.636 279.998 228.487 279.771C228.339 279.541 228.128 279.371 227.854 279.262C227.585 279.148 227.267 279.092 226.899 279.092H226.126ZM234.856 274.422V283H233.772V275.775L231.587 276.572V275.594L234.687 274.422H234.856Z" fill="#172755"/>
<rect x="264.871" y="253" width="66" height="52" fill="white"/>
<rect x="330.871" y="253" width="66" height="52" fill="white"/>
<rect x="396.871" y="253" width="66" height="52" fill="white"/>
<path d="M19.5659 4.46875H20.6616L23.4565 11.4238L26.2456 4.46875H27.3472L23.8784 13H23.0229L19.5659 4.46875ZM19.2085 4.46875H20.1753L20.3335 9.67188V13H19.2085V4.46875ZM26.7319 4.46875H27.6987V13H26.5737V9.67188L26.7319 4.46875ZM36.2534 8.46484V9.00391C36.2534 9.64453 36.1733 10.2188 36.0132 10.7266C35.853 11.2344 35.6226 11.666 35.3218 12.0215C35.021 12.377 34.6597 12.6484 34.2378 12.8359C33.8198 13.0234 33.3511 13.1172 32.8315 13.1172C32.3276 13.1172 31.8647 13.0234 31.4429 12.8359C31.0249 12.6484 30.6616 12.377 30.353 12.0215C30.0483 11.666 29.812 11.2344 29.644 10.7266C29.4761 10.2188 29.3921 9.64453 29.3921 9.00391V8.46484C29.3921 7.82422 29.4741 7.25195 29.6382 6.74805C29.8062 6.24023 30.0425 5.80859 30.3472 5.45312C30.6519 5.09375 31.0132 4.82031 31.4312 4.63281C31.853 4.44531 32.3159 4.35156 32.8198 4.35156C33.3394 4.35156 33.8081 4.44531 34.2261 4.63281C34.6479 4.82031 35.0093 5.09375 35.3101 5.45312C35.6147 5.80859 35.8472 6.24023 36.0073 6.74805C36.1714 7.25195 36.2534 7.82422 36.2534 8.46484ZM35.1343 9.00391V8.45312C35.1343 7.94531 35.0815 7.49609 34.9761 7.10547C34.8745 6.71484 34.7241 6.38672 34.5249 6.12109C34.3257 5.85547 34.0815 5.6543 33.7925 5.51758C33.5073 5.38086 33.1831 5.3125 32.8198 5.3125C32.4683 5.3125 32.1499 5.38086 31.8647 5.51758C31.5835 5.6543 31.3413 5.85547 31.1382 6.12109C30.939 6.38672 30.7847 6.71484 30.6753 7.10547C30.5659 7.49609 30.5112 7.94531 30.5112 8.45312V9.00391C30.5112 9.51562 30.5659 9.96875 30.6753 10.3633C30.7847 10.7539 30.9409 11.084 31.144 11.3535C31.3511 11.6191 31.5952 11.8203 31.8765 11.957C32.1616 12.0938 32.48 12.1621 32.8315 12.1621C33.1987 12.1621 33.5249 12.0938 33.8101 11.957C34.0952 11.8203 34.3354 11.6191 34.5308 11.3535C34.73 11.084 34.8804 10.7539 34.9819 10.3633C35.0835 9.96875 35.1343 9.51562 35.1343 9.00391ZM44.5093 4.46875V13H43.3726L39.0776 6.41992V13H37.9468V4.46875H39.0776L43.3901 11.0664V4.46875H44.5093Z" fill="#8794BA"/>
<path d="M91.1323 4.46875V13H90.019V4.46875H91.1323ZM93.8745 4.46875V5.39453H87.2827V4.46875H93.8745ZM100.021 4.46875H101.146V10.2402C101.146 10.8809 101.003 11.4141 100.718 11.8398C100.433 12.2656 100.054 12.5859 99.5815 12.8008C99.1128 13.0117 98.603 13.1172 98.0522 13.1172C97.4741 13.1172 96.9507 13.0117 96.4819 12.8008C96.0171 12.5859 95.6479 12.2656 95.3745 11.8398C95.105 11.4141 94.9702 10.8809 94.9702 10.2402V4.46875H96.0894V10.2402C96.0894 10.6855 96.1714 11.0527 96.3354 11.3418C96.4995 11.6309 96.728 11.8457 97.021 11.9863C97.3179 12.127 97.6616 12.1973 98.0522 12.1973C98.4468 12.1973 98.7905 12.127 99.0835 11.9863C99.3804 11.8457 99.6108 11.6309 99.7749 11.3418C99.939 11.0527 100.021 10.6855 100.021 10.2402V4.46875ZM108.341 12.0801V13H103.824V12.0801H108.341ZM104.052 4.46875V13H102.921V4.46875H104.052ZM107.744 8.13672V9.05664H103.824V8.13672H107.744ZM108.283 4.46875V5.39453H103.824V4.46875H108.283Z" fill="#8794BA"/>
<path d="M154.431 10.4219L156.125 4.46875H156.945L156.47 6.7832L154.648 13H153.833L154.431 10.4219ZM152.679 4.46875L154.027 10.3047L154.431 13H153.623L151.554 4.46875H152.679ZM159.136 10.2988L160.455 4.46875H161.585L159.523 13H158.714L159.136 10.2988ZM157.068 4.46875L158.714 10.4219L159.312 13H158.498L156.74 6.7832L156.259 4.46875H157.068ZM168.259 12.0801V13H163.742V12.0801H168.259ZM163.97 4.46875V13H162.839V4.46875H163.97ZM167.662 8.13672V9.05664H163.742V8.13672H167.662ZM168.201 4.46875V5.39453H163.742V4.46875H168.201ZM171.968 13H170.187L170.199 12.0801H171.968C172.578 12.0801 173.085 11.9531 173.492 11.6992C173.898 11.4414 174.203 11.082 174.406 10.6211C174.613 10.1562 174.716 9.61328 174.716 8.99219V8.4707C174.716 7.98242 174.658 7.54883 174.541 7.16992C174.423 6.78711 174.251 6.46484 174.025 6.20312C173.798 5.9375 173.521 5.73633 173.193 5.59961C172.869 5.46289 172.496 5.39453 172.074 5.39453H170.152V4.46875H172.074C172.632 4.46875 173.142 4.5625 173.603 4.75C174.064 4.93359 174.46 5.20117 174.792 5.55273C175.128 5.90039 175.386 6.32227 175.566 6.81836C175.746 7.31055 175.835 7.86523 175.835 8.48242V8.99219C175.835 9.60938 175.746 10.166 175.566 10.6621C175.386 11.1543 175.126 11.5742 174.787 11.9219C174.451 12.2695 174.044 12.5371 173.568 12.7246C173.095 12.9082 172.562 13 171.968 13ZM170.791 4.46875V13H169.66V4.46875H170.791Z" fill="#8794BA"/>
<path d="M222.259 4.46875V13H221.146V4.46875H222.259ZM225.001 4.46875V5.39453H218.41V4.46875H225.001ZM231.839 8.13672V9.05664H227.222V8.13672H231.839ZM227.398 4.46875V13H226.267V4.46875H227.398ZM232.824 4.46875V13H231.699V4.46875H232.824ZM239.714 4.46875H240.839V10.2402C240.839 10.8809 240.697 11.4141 240.412 11.8398C240.126 12.2656 239.748 12.5859 239.275 12.8008C238.806 13.0117 238.296 13.1172 237.746 13.1172C237.167 13.1172 236.644 13.0117 236.175 12.8008C235.71 12.5859 235.341 12.2656 235.068 11.8398C234.798 11.4141 234.664 10.8809 234.664 10.2402V4.46875H235.783V10.2402C235.783 10.6855 235.865 11.0527 236.029 11.3418C236.193 11.6309 236.421 11.8457 236.714 11.9863C237.011 12.127 237.355 12.1973 237.746 12.1973C238.14 12.1973 238.484 12.127 238.777 11.9863C239.074 11.8457 239.304 11.6309 239.468 11.3418C239.632 11.0527 239.714 10.6855 239.714 10.2402V4.46875Z" fill="#8794BA"/>
<path d="M289.343 4.46875V13H288.212V4.46875H289.343ZM292.917 8.30664V9.23242H289.097V8.30664H292.917ZM293.498 4.46875V5.39453H289.097V4.46875H293.498ZM294.845 4.46875H297.669C298.31 4.46875 298.851 4.56641 299.292 4.76172C299.738 4.95703 300.076 5.24609 300.306 5.62891C300.541 6.00781 300.658 6.47461 300.658 7.0293C300.658 7.41992 300.578 7.77734 300.417 8.10156C300.261 8.42188 300.035 8.69531 299.738 8.92188C299.445 9.14453 299.093 9.31055 298.683 9.41992L298.367 9.54297H295.712L295.701 8.62305H297.705C298.111 8.62305 298.449 8.55273 298.718 8.41211C298.988 8.26758 299.191 8.07422 299.328 7.83203C299.464 7.58984 299.533 7.32227 299.533 7.0293C299.533 6.70117 299.468 6.41406 299.339 6.16797C299.21 5.92188 299.007 5.73242 298.73 5.59961C298.457 5.46289 298.103 5.39453 297.669 5.39453H295.976V13H294.845V4.46875ZM299.832 13L297.757 9.13281L298.935 9.12695L301.039 12.9297V13H299.832ZM303.453 4.46875V13H302.322V4.46875H303.453Z" fill="#8794BA"/>
<path d="M356.732 10.8438C356.732 10.6445 356.701 10.4688 356.638 10.3164C356.58 10.1602 356.474 10.0195 356.322 9.89453C356.173 9.76953 355.966 9.65039 355.701 9.53711C355.439 9.42383 355.107 9.30859 354.705 9.19141C354.283 9.06641 353.902 8.92773 353.562 8.77539C353.222 8.61914 352.931 8.44141 352.689 8.24219C352.447 8.04297 352.261 7.81445 352.132 7.55664C352.003 7.29883 351.939 7.00391 351.939 6.67188C351.939 6.33984 352.007 6.0332 352.144 5.75195C352.281 5.4707 352.476 5.22656 352.73 5.01953C352.988 4.80859 353.294 4.64453 353.65 4.52734C354.005 4.41016 354.402 4.35156 354.839 4.35156C355.48 4.35156 356.023 4.47461 356.468 4.7207C356.917 4.96289 357.259 5.28125 357.494 5.67578C357.728 6.06641 357.845 6.48438 357.845 6.92969H356.72C356.72 6.60938 356.652 6.32617 356.515 6.08008C356.378 5.83008 356.171 5.63477 355.894 5.49414C355.617 5.34961 355.265 5.27734 354.839 5.27734C354.437 5.27734 354.105 5.33789 353.843 5.45898C353.582 5.58008 353.386 5.74414 353.257 5.95117C353.132 6.1582 353.07 6.39453 353.07 6.66016C353.07 6.83984 353.107 7.00391 353.181 7.15234C353.259 7.29688 353.378 7.43164 353.539 7.55664C353.703 7.68164 353.91 7.79688 354.16 7.90234C354.414 8.00781 354.716 8.10938 355.068 8.20703C355.552 8.34375 355.97 8.49609 356.322 8.66406C356.673 8.83203 356.962 9.02148 357.189 9.23242C357.419 9.43945 357.589 9.67578 357.699 9.94141C357.812 10.2031 357.869 10.5 357.869 10.832C357.869 11.1797 357.798 11.4941 357.658 11.7754C357.517 12.0566 357.316 12.2969 357.054 12.4961C356.792 12.6953 356.478 12.8496 356.111 12.959C355.748 13.0645 355.341 13.1172 354.892 13.1172C354.498 13.1172 354.109 13.0625 353.726 12.9531C353.347 12.8438 353.001 12.6797 352.689 12.4609C352.38 12.2422 352.132 11.9727 351.945 11.6523C351.761 11.3281 351.669 10.9531 351.669 10.5273H352.794C352.794 10.8203 352.851 11.0723 352.964 11.2832C353.078 11.4902 353.232 11.6621 353.427 11.7988C353.626 11.9355 353.851 12.0371 354.101 12.1035C354.355 12.166 354.619 12.1973 354.892 12.1973C355.287 12.1973 355.621 12.1426 355.894 12.0332C356.167 11.9238 356.375 11.7676 356.515 11.5645C356.66 11.3613 356.732 11.1211 356.732 10.8438ZM362.468 5.22461L359.644 13H358.49L361.742 4.46875H362.486L362.468 5.22461ZM364.835 13L362.005 5.22461L361.988 4.46875H362.732L365.996 13H364.835ZM364.689 9.8418V10.7676H359.896V9.8418H364.689ZM369.529 4.46875V13H368.416V4.46875H369.529ZM372.271 4.46875V5.39453H365.679V4.46875H372.271Z" fill="#8794BA"/>
<path d="M421.671 10.8438C421.671 10.6445 421.64 10.4688 421.578 10.3164C421.519 10.1602 421.414 10.0195 421.261 9.89453C421.113 9.76953 420.906 9.65039 420.64 9.53711C420.378 9.42383 420.046 9.30859 419.644 9.19141C419.222 9.06641 418.841 8.92773 418.501 8.77539C418.162 8.61914 417.871 8.44141 417.628 8.24219C417.386 8.04297 417.201 7.81445 417.072 7.55664C416.943 7.29883 416.878 7.00391 416.878 6.67188C416.878 6.33984 416.947 6.0332 417.083 5.75195C417.22 5.4707 417.416 5.22656 417.669 5.01953C417.927 4.80859 418.234 4.64453 418.589 4.52734C418.945 4.41016 419.341 4.35156 419.779 4.35156C420.419 4.35156 420.962 4.47461 421.408 4.7207C421.857 4.96289 422.199 5.28125 422.433 5.67578C422.667 6.06641 422.785 6.48438 422.785 6.92969H421.66C421.66 6.60938 421.591 6.32617 421.455 6.08008C421.318 5.83008 421.111 5.63477 420.833 5.49414C420.556 5.34961 420.205 5.27734 419.779 5.27734C419.376 5.27734 419.044 5.33789 418.783 5.45898C418.521 5.58008 418.326 5.74414 418.197 5.95117C418.072 6.1582 418.009 6.39453 418.009 6.66016C418.009 6.83984 418.046 7.00391 418.121 7.15234C418.199 7.29688 418.318 7.43164 418.478 7.55664C418.642 7.68164 418.849 7.79688 419.099 7.90234C419.353 8.00781 419.656 8.10938 420.007 8.20703C420.492 8.34375 420.91 8.49609 421.261 8.66406C421.613 8.83203 421.902 9.02148 422.128 9.23242C422.359 9.43945 422.529 9.67578 422.638 9.94141C422.751 10.2031 422.808 10.5 422.808 10.832C422.808 11.1797 422.738 11.4941 422.597 11.7754C422.457 12.0566 422.255 12.2969 421.994 12.4961C421.732 12.6953 421.417 12.8496 421.05 12.959C420.687 13.0645 420.281 13.1172 419.832 13.1172C419.437 13.1172 419.048 13.0625 418.666 12.9531C418.287 12.8438 417.941 12.6797 417.628 12.4609C417.32 12.2422 417.072 11.9727 416.884 11.6523C416.701 11.3281 416.609 10.9531 416.609 10.5273H417.734C417.734 10.8203 417.791 11.0723 417.904 11.2832C418.017 11.4902 418.171 11.6621 418.367 11.7988C418.566 11.9355 418.791 12.0371 419.041 12.1035C419.294 12.166 419.558 12.1973 419.832 12.1973C420.226 12.1973 420.56 12.1426 420.833 12.0332C421.107 11.9238 421.314 11.7676 421.455 11.5645C421.599 11.3613 421.671 11.1211 421.671 10.8438ZM429.13 4.46875H430.255V10.2402C430.255 10.8809 430.113 11.4141 429.828 11.8398C429.542 12.2656 429.164 12.5859 428.691 12.8008C428.222 13.0117 427.712 13.1172 427.162 13.1172C426.583 13.1172 426.06 13.0117 425.591 12.8008C425.126 12.5859 424.757 12.2656 424.484 11.8398C424.214 11.4141 424.08 10.8809 424.08 10.2402V4.46875H425.199V10.2402C425.199 10.6855 425.281 11.0527 425.445 11.3418C425.609 11.6309 425.837 11.8457 426.13 11.9863C426.427 12.127 426.771 12.1973 427.162 12.1973C427.556 12.1973 427.9 12.127 428.193 11.9863C428.49 11.8457 428.72 11.6309 428.884 11.3418C429.048 11.0527 429.13 10.6855 429.13 10.2402V4.46875ZM438.593 4.46875V13H437.457L433.162 6.41992V13H432.031V4.46875H433.162L437.474 11.0664V4.46875H438.593Z" fill="#8794BA"/>
</svg>
