<svg width="465" height="311" viewBox="0 0 465 311" fill="none" xmlns="http://www.w3.org/2000/svg">
<path d="M47.8854 89.0774L156.871 26.1547L265.856 89.0774V214.923L156.871 277.845L47.8854 214.923V89.0774Z" stroke="#EEEEF7" stroke-width="2"/>
<path d="M85.9905 111.077L156.871 70.1547L227.751 111.077V192.923L156.871 233.845L85.9905 192.923V111.077Z" stroke="#EEEEF7" stroke-width="2"/>
<path d="M99.2838 119.015L157.234 71.2916L238.95 103.394L244.802 201.403L157.216 253.468L92.9475 186.278L99.2838 119.015Z" stroke="#0088F0" stroke-width="4"/>
<path d="M73.392 104.392L156.232 58.6373L202.11 126.966L232.313 196H157.145L104.66 181.338L73.392 104.392Z" stroke="#EF2A82" stroke-width="4"/>
<path d="M132.756 138.077L156.871 124.155L180.985 138.077V165.923L156.871 179.845L132.756 165.923V138.077Z" stroke="#EEEEF7" stroke-width="2"/>
<path d="M397.398 85.2324H399.94C401.185 85.2324 402.211 85.0271 403.02 84.6163C403.841 84.1928 404.451 83.6217 404.849 82.9029C405.26 82.1713 405.465 81.3499 405.465 80.4386C405.465 79.3605 405.285 78.4556 404.926 77.7241C404.566 76.9925 404.027 76.4406 403.309 76.0684C402.59 75.6961 401.679 75.51 400.575 75.51C399.574 75.51 398.688 75.709 397.918 76.1069C397.161 76.4919 396.564 77.0438 396.128 77.7626C395.704 78.4813 395.492 79.3284 395.492 80.3038H391.931C391.931 78.8792 392.29 77.5829 393.009 76.4149C393.727 75.2469 394.735 74.3164 396.031 73.6233C397.34 72.9302 398.855 72.5837 400.575 72.5837C402.269 72.5837 403.751 72.8853 405.022 73.4886C406.293 74.079 407.281 74.9646 407.987 76.1454C408.693 77.3133 409.046 78.7701 409.046 80.5156C409.046 81.2215 408.879 81.9788 408.545 82.7874C408.224 83.5831 407.717 84.3276 407.024 85.0206C406.344 85.7137 405.458 86.2849 404.368 86.7341C403.277 87.1705 401.967 87.3887 400.44 87.3887H397.398V85.2324ZM397.398 88.1588V86.0218H400.44C402.224 86.0218 403.7 86.2335 404.868 86.6571C406.036 87.0806 406.954 87.6454 407.621 88.3513C408.301 89.0572 408.776 89.8337 409.046 90.6808C409.328 91.5151 409.469 92.3493 409.469 93.1836C409.469 94.4927 409.245 95.6543 408.796 96.6682C408.359 97.6822 407.737 98.5421 406.928 99.248C406.132 99.954 405.195 100.487 404.117 100.846C403.039 101.205 401.865 101.385 400.594 101.385C399.375 101.385 398.226 101.212 397.148 100.865C396.083 100.519 395.139 100.018 394.318 99.3636C393.496 98.6961 392.855 97.8811 392.393 96.9185C391.931 95.9431 391.7 94.8329 391.7 93.5879H395.261C395.261 94.5633 395.473 95.4169 395.897 96.1484C396.333 96.88 396.949 97.4512 397.745 97.8619C398.553 98.2598 399.503 98.4587 400.594 98.4587C401.685 98.4587 402.622 98.2726 403.405 97.9004C404.201 97.5153 404.81 96.9378 405.234 96.1677C405.67 95.3976 405.888 94.4286 405.888 93.2606C405.888 92.0926 405.645 91.1364 405.157 90.392C404.669 89.6348 403.976 89.0765 403.078 88.7171C402.192 88.3449 401.146 88.1588 399.94 88.1588H397.398ZM433.323 91.5664V94.4927H413.07V92.3943L425.622 72.9687H428.529L425.41 78.5904L417.113 91.5664H433.323ZM429.415 72.9687V101H425.853V72.9687H429.415ZM436.249 79.8418V78.3594C436.249 77.2941 436.48 76.3251 436.942 75.4523C437.404 74.5795 438.065 73.88 438.925 73.3538C439.785 72.8276 440.806 72.5645 441.986 72.5645C443.193 72.5645 444.22 72.8276 445.067 73.3538C445.927 73.88 446.588 74.5795 447.05 75.4523C447.512 76.3251 447.743 77.2941 447.743 78.3594V79.8418C447.743 80.8814 447.512 81.8376 447.05 82.7104C446.601 83.5831 445.946 84.2826 445.086 84.8089C444.239 85.3351 443.219 85.5982 442.025 85.5982C440.831 85.5982 439.798 85.3351 438.925 84.8089C438.065 84.2826 437.404 83.5831 436.942 82.7104C436.48 81.8376 436.249 80.8814 436.249 79.8418ZM438.925 78.3594V79.8418C438.925 80.4322 439.034 80.9905 439.253 81.5167C439.484 82.043 439.83 82.4729 440.292 82.8066C440.754 83.1275 441.332 83.2879 442.025 83.2879C442.718 83.2879 443.289 83.1275 443.738 82.8066C444.188 82.4729 444.521 82.043 444.739 81.5167C444.958 80.9905 445.067 80.4322 445.067 79.8418V78.3594C445.067 77.7561 444.951 77.1914 444.72 76.6652C444.502 76.1261 444.162 75.6961 443.7 75.3753C443.251 75.0416 442.679 74.8747 441.986 74.8747C441.306 74.8747 440.735 75.0416 440.273 75.3753C439.824 75.6961 439.484 76.1261 439.253 76.6652C439.034 77.1914 438.925 77.7561 438.925 78.3594ZM449.899 95.6286V94.127C449.899 93.0745 450.13 92.1119 450.592 91.2391C451.054 90.3663 451.715 89.6669 452.575 89.1406C453.435 88.6144 454.455 88.3513 455.636 88.3513C456.843 88.3513 457.869 88.6144 458.717 89.1406C459.577 89.6669 460.238 90.3663 460.7 91.2391C461.162 92.1119 461.393 93.0745 461.393 94.127V95.6286C461.393 96.6811 461.162 97.6437 460.7 98.5165C460.25 99.3892 459.596 100.089 458.736 100.615C457.889 101.141 456.868 101.404 455.675 101.404C454.481 101.404 453.454 101.141 452.594 100.615C451.734 100.089 451.067 99.3892 450.592 98.5165C450.13 97.6437 449.899 96.6811 449.899 95.6286ZM452.575 94.127V95.6286C452.575 96.219 452.684 96.7838 452.902 97.3228C453.133 97.8491 453.48 98.279 453.942 98.6127C454.404 98.9336 454.982 99.094 455.675 99.094C456.368 99.094 456.939 98.9336 457.388 98.6127C457.85 98.279 458.19 97.8491 458.409 97.3228C458.627 96.7966 458.736 96.2319 458.736 95.6286V94.127C458.736 93.5237 458.62 92.959 458.389 92.4328C458.171 91.9065 457.831 91.483 457.369 91.1621C456.92 90.8284 456.342 90.6616 455.636 90.6616C454.956 90.6616 454.385 90.8284 453.923 91.1621C453.474 91.483 453.133 91.9065 452.902 92.4328C452.684 92.959 452.575 93.5237 452.575 94.127ZM456.522 76.954L442.834 98.863L440.831 97.5924L454.52 75.6833L456.522 76.954Z" fill="#EF2A82"/>
<path d="M390.679 127.351V127.148C390.679 126.463 390.779 125.827 390.978 125.241C391.177 124.649 391.464 124.137 391.839 123.703C392.214 123.264 392.668 122.924 393.202 122.684C393.735 122.438 394.333 122.314 394.995 122.314C395.663 122.314 396.263 122.438 396.796 122.684C397.335 122.924 397.792 123.264 398.167 123.703C398.548 124.137 398.838 124.649 399.038 125.241C399.237 125.827 399.336 126.463 399.336 127.148V127.351C399.336 128.036 399.237 128.672 399.038 129.258C398.838 129.844 398.548 130.356 398.167 130.796C397.792 131.229 397.338 131.569 396.805 131.815C396.278 132.056 395.68 132.176 395.012 132.176C394.344 132.176 393.744 132.056 393.21 131.815C392.677 131.569 392.22 131.229 391.839 130.796C391.464 130.356 391.177 129.844 390.978 129.258C390.779 128.672 390.679 128.036 390.679 127.351ZM392.305 127.148V127.351C392.305 127.825 392.361 128.273 392.472 128.695C392.583 129.111 392.75 129.48 392.973 129.803C393.202 130.125 393.486 130.38 393.826 130.567C394.166 130.749 394.561 130.84 395.012 130.84C395.458 130.84 395.847 130.749 396.181 130.567C396.521 130.38 396.802 130.125 397.025 129.803C397.248 129.48 397.415 129.111 397.526 128.695C397.643 128.273 397.702 127.825 397.702 127.351V127.148C397.702 126.68 397.643 126.237 397.526 125.821C397.415 125.399 397.245 125.027 397.016 124.705C396.793 124.377 396.512 124.119 396.172 123.932C395.838 123.744 395.446 123.65 394.995 123.65C394.549 123.65 394.157 123.744 393.817 123.932C393.483 124.119 393.202 124.377 392.973 124.705C392.75 125.027 392.583 125.399 392.472 125.821C392.361 126.237 392.305 126.68 392.305 127.148ZM403.001 124.318V135.656H401.367V122.49H402.861L403.001 124.318ZM409.409 127.166V127.351C409.409 128.042 409.327 128.684 409.163 129.275C408.999 129.861 408.758 130.371 408.442 130.805C408.131 131.238 407.748 131.575 407.291 131.815C406.833 132.056 406.309 132.176 405.717 132.176C405.114 132.176 404.581 132.076 404.118 131.877C403.655 131.678 403.262 131.388 402.94 131.007C402.618 130.626 402.36 130.169 402.167 129.636C401.979 129.103 401.85 128.502 401.78 127.834V126.85C401.85 126.146 401.982 125.517 402.175 124.96C402.369 124.403 402.624 123.929 402.94 123.536C403.262 123.138 403.652 122.836 404.109 122.631C404.566 122.42 405.093 122.314 405.691 122.314C406.289 122.314 406.819 122.432 407.282 122.666C407.745 122.895 408.134 123.223 408.451 123.65C408.767 124.078 409.004 124.591 409.163 125.188C409.327 125.78 409.409 126.439 409.409 127.166ZM407.774 127.351V127.166C407.774 126.691 407.724 126.246 407.625 125.83C407.525 125.408 407.37 125.039 407.159 124.723C406.954 124.4 406.69 124.148 406.368 123.967C406.045 123.779 405.662 123.686 405.216 123.686C404.806 123.686 404.449 123.756 404.144 123.896C403.845 124.037 403.59 124.228 403.379 124.468C403.168 124.702 402.996 124.972 402.861 125.276C402.732 125.575 402.635 125.886 402.571 126.208V128.484C402.688 128.895 402.852 129.281 403.063 129.645C403.274 130.002 403.555 130.292 403.907 130.515C404.258 130.731 404.701 130.84 405.234 130.84C405.673 130.84 406.051 130.749 406.368 130.567C406.69 130.38 406.954 130.125 407.159 129.803C407.37 129.48 407.525 129.111 407.625 128.695C407.724 128.273 407.774 127.825 407.774 127.351ZM415.464 122.49V123.738H410.323V122.49H415.464ZM412.063 120.179H413.689V129.645C413.689 129.967 413.739 130.21 413.838 130.374C413.938 130.538 414.067 130.646 414.225 130.699C414.383 130.752 414.553 130.778 414.735 130.778C414.87 130.778 415.01 130.767 415.157 130.743C415.309 130.714 415.423 130.69 415.5 130.673L415.508 132C415.379 132.041 415.209 132.079 414.999 132.114C414.793 132.155 414.544 132.176 414.251 132.176C413.853 132.176 413.487 132.097 413.153 131.938C412.819 131.78 412.552 131.517 412.353 131.147C412.16 130.772 412.063 130.269 412.063 129.636V120.179ZM419.138 122.49V132H417.503V122.49H419.138ZM417.38 119.968C417.38 119.704 417.459 119.481 417.618 119.3C417.782 119.118 418.022 119.027 418.338 119.027C418.649 119.027 418.886 119.118 419.05 119.3C419.22 119.481 419.305 119.704 419.305 119.968C419.305 120.22 419.22 120.437 419.05 120.618C418.886 120.794 418.649 120.882 418.338 120.882C418.022 120.882 417.782 120.794 417.618 120.618C417.459 120.437 417.38 120.22 417.38 119.968ZM421.318 127.351V127.148C421.318 126.463 421.417 125.827 421.617 125.241C421.816 124.649 422.103 124.137 422.478 123.703C422.853 123.264 423.307 122.924 423.84 122.684C424.374 122.438 424.971 122.314 425.633 122.314C426.301 122.314 426.902 122.438 427.435 122.684C427.974 122.924 428.431 123.264 428.806 123.703C429.187 124.137 429.477 124.649 429.676 125.241C429.875 125.827 429.975 126.463 429.975 127.148V127.351C429.975 128.036 429.875 128.672 429.676 129.258C429.477 129.844 429.187 130.356 428.806 130.796C428.431 131.229 427.977 131.569 427.444 131.815C426.917 132.056 426.319 132.176 425.651 132.176C424.983 132.176 424.382 132.056 423.849 131.815C423.316 131.569 422.859 131.229 422.478 130.796C422.103 130.356 421.816 129.844 421.617 129.258C421.417 128.672 421.318 128.036 421.318 127.351ZM422.944 127.148V127.351C422.944 127.825 423 128.273 423.111 128.695C423.222 129.111 423.389 129.48 423.612 129.803C423.84 130.125 424.125 130.38 424.464 130.567C424.804 130.749 425.2 130.84 425.651 130.84C426.096 130.84 426.486 130.749 426.82 130.567C427.16 130.38 427.441 130.125 427.664 129.803C427.886 129.48 428.053 129.111 428.165 128.695C428.282 128.273 428.34 127.825 428.34 127.351V127.148C428.34 126.68 428.282 126.237 428.165 125.821C428.053 125.399 427.883 125.027 427.655 124.705C427.432 124.377 427.151 124.119 426.811 123.932C426.477 123.744 426.084 123.65 425.633 123.65C425.188 123.65 424.795 123.744 424.456 123.932C424.122 124.119 423.84 124.377 423.612 124.705C423.389 125.027 423.222 125.399 423.111 125.821C423 126.237 422.944 126.68 422.944 127.148ZM433.64 124.521V132H432.014V122.49H433.552L433.64 124.521ZM433.253 126.885L432.577 126.858C432.583 126.208 432.679 125.607 432.867 125.057C433.054 124.5 433.318 124.017 433.658 123.606C433.998 123.196 434.402 122.88 434.871 122.657C435.345 122.429 435.87 122.314 436.444 122.314C436.913 122.314 437.334 122.379 437.709 122.508C438.084 122.631 438.404 122.83 438.667 123.105C438.937 123.381 439.142 123.738 439.283 124.178C439.423 124.611 439.494 125.142 439.494 125.769V132H437.859V125.751C437.859 125.253 437.786 124.854 437.639 124.556C437.493 124.251 437.279 124.031 436.998 123.896C436.716 123.756 436.371 123.686 435.96 123.686C435.556 123.686 435.187 123.771 434.853 123.94C434.525 124.11 434.241 124.345 434 124.644C433.766 124.942 433.582 125.285 433.447 125.672C433.318 126.053 433.253 126.457 433.253 126.885ZM451.596 119.133V132H449.97V121.163L446.692 122.358V120.891L451.341 119.133H451.596Z" fill="#8794BA"/>
<path d="M410.567 210.074V213H392.219V210.439L401.403 200.217C402.532 198.959 403.405 197.893 404.021 197.021C404.65 196.135 405.086 195.346 405.33 194.653C405.587 193.947 405.715 193.228 405.715 192.496C405.715 191.572 405.523 190.738 405.138 189.994C404.765 189.236 404.214 188.633 403.482 188.184C402.75 187.735 401.865 187.51 400.825 187.51C399.58 187.51 398.541 187.754 397.706 188.242C396.885 188.717 396.269 189.384 395.858 190.244C395.447 191.104 395.242 192.092 395.242 193.209H391.68C391.68 191.63 392.027 190.186 392.72 188.877C393.413 187.568 394.44 186.528 395.8 185.758C397.161 184.975 398.836 184.584 400.825 184.584C402.596 184.584 404.111 184.898 405.369 185.527C406.626 186.143 407.589 187.016 408.256 188.145C408.937 189.262 409.277 190.571 409.277 192.073C409.277 192.894 409.136 193.729 408.853 194.576C408.584 195.41 408.205 196.244 407.717 197.078C407.243 197.913 406.684 198.734 406.042 199.543C405.414 200.351 404.74 201.147 404.021 201.93L396.513 210.074H410.567ZM417.921 210.016H418.287C420.34 210.016 422.009 209.727 423.292 209.15C424.576 208.572 425.564 207.795 426.257 206.82C426.95 205.845 427.425 204.747 427.682 203.528C427.939 202.296 428.067 201.032 428.067 199.735V195.442C428.067 194.171 427.919 193.042 427.624 192.054C427.342 191.065 426.944 190.237 426.431 189.57C425.93 188.903 425.359 188.396 424.717 188.049C424.075 187.703 423.395 187.529 422.676 187.529C421.855 187.529 421.117 187.696 420.462 188.03C419.821 188.351 419.275 188.806 418.826 189.397C418.39 189.987 418.056 190.68 417.825 191.476C417.594 192.272 417.478 193.138 417.478 194.075C417.478 194.909 417.581 195.718 417.786 196.501C417.992 197.284 418.306 197.99 418.73 198.619C419.153 199.247 419.679 199.748 420.308 200.12C420.95 200.48 421.701 200.659 422.561 200.659C423.357 200.659 424.101 200.505 424.794 200.197C425.5 199.876 426.123 199.446 426.662 198.907C427.214 198.355 427.65 197.733 427.971 197.04C428.304 196.347 428.497 195.622 428.548 194.864H430.243C430.243 195.93 430.031 196.982 429.607 198.022C429.197 199.049 428.619 199.985 427.875 200.833C427.13 201.68 426.257 202.36 425.256 202.873C424.255 203.374 423.164 203.624 421.983 203.624C420.597 203.624 419.397 203.355 418.383 202.816C417.369 202.277 416.535 201.558 415.88 200.659C415.239 199.761 414.757 198.76 414.436 197.656C414.128 196.539 413.974 195.41 413.974 194.268C413.974 192.933 414.161 191.681 414.533 190.513C414.905 189.345 415.457 188.319 416.188 187.433C416.92 186.535 417.825 185.835 418.903 185.335C419.994 184.834 421.252 184.584 422.676 184.584C424.281 184.584 425.648 184.905 426.777 185.546C427.907 186.188 428.824 187.048 429.53 188.126C430.249 189.204 430.775 190.417 431.109 191.765C431.443 193.112 431.609 194.499 431.609 195.923V197.213C431.609 198.664 431.513 200.14 431.321 201.641C431.141 203.13 430.788 204.555 430.262 205.915C429.748 207.276 428.998 208.495 428.009 209.573C427.021 210.638 425.731 211.485 424.14 212.114C422.561 212.73 420.61 213.039 418.287 213.039H417.921V210.016ZM436.249 191.842V190.359C436.249 189.294 436.48 188.325 436.942 187.452C437.404 186.58 438.065 185.88 438.925 185.354C439.785 184.828 440.806 184.564 441.986 184.564C443.193 184.564 444.22 184.828 445.067 185.354C445.927 185.88 446.588 186.58 447.05 187.452C447.512 188.325 447.743 189.294 447.743 190.359V191.842C447.743 192.881 447.512 193.838 447.05 194.71C446.601 195.583 445.946 196.283 445.086 196.809C444.239 197.335 443.219 197.598 442.025 197.598C440.831 197.598 439.798 197.335 438.925 196.809C438.065 196.283 437.404 195.583 436.942 194.71C436.48 193.838 436.249 192.881 436.249 191.842ZM438.925 190.359V191.842C438.925 192.432 439.034 192.991 439.253 193.517C439.484 194.043 439.83 194.473 440.292 194.807C440.754 195.128 441.332 195.288 442.025 195.288C442.718 195.288 443.289 195.128 443.738 194.807C444.188 194.473 444.521 194.043 444.739 193.517C444.958 192.991 445.067 192.432 445.067 191.842V190.359C445.067 189.756 444.951 189.191 444.72 188.665C444.502 188.126 444.162 187.696 443.7 187.375C443.251 187.042 442.679 186.875 441.986 186.875C441.306 186.875 440.735 187.042 440.273 187.375C439.824 187.696 439.484 188.126 439.253 188.665C439.034 189.191 438.925 189.756 438.925 190.359ZM449.899 207.629V206.127C449.899 205.074 450.13 204.112 450.592 203.239C451.054 202.366 451.715 201.667 452.575 201.141C453.435 200.614 454.455 200.351 455.636 200.351C456.843 200.351 457.869 200.614 458.717 201.141C459.577 201.667 460.238 202.366 460.7 203.239C461.162 204.112 461.393 205.074 461.393 206.127V207.629C461.393 208.681 461.162 209.644 460.7 210.516C460.25 211.389 459.596 212.089 458.736 212.615C457.889 213.141 456.868 213.404 455.675 213.404C454.481 213.404 453.454 213.141 452.594 212.615C451.734 212.089 451.067 211.389 450.592 210.516C450.13 209.644 449.899 208.681 449.899 207.629ZM452.575 206.127V207.629C452.575 208.219 452.684 208.784 452.902 209.323C453.133 209.849 453.48 210.279 453.942 210.613C454.404 210.934 454.982 211.094 455.675 211.094C456.368 211.094 456.939 210.934 457.388 210.613C457.85 210.279 458.19 209.849 458.409 209.323C458.627 208.797 458.736 208.232 458.736 207.629V206.127C458.736 205.524 458.62 204.959 458.389 204.433C458.171 203.907 457.831 203.483 457.369 203.162C456.92 202.828 456.342 202.662 455.636 202.662C454.956 202.662 454.385 202.828 453.923 203.162C453.474 203.483 453.133 203.907 452.902 204.433C452.684 204.959 452.575 205.524 452.575 206.127ZM456.522 188.954L442.834 210.863L440.831 209.592L454.52 187.683L456.522 188.954Z" fill="#0088F0"/>
<path d="M390.679 239.351V239.148C390.679 238.463 390.779 237.827 390.978 237.241C391.177 236.649 391.464 236.137 391.839 235.703C392.214 235.264 392.668 234.924 393.202 234.684C393.735 234.438 394.333 234.314 394.995 234.314C395.663 234.314 396.263 234.438 396.796 234.684C397.335 234.924 397.792 235.264 398.167 235.703C398.548 236.137 398.838 236.649 399.038 237.241C399.237 237.827 399.336 238.463 399.336 239.148V239.351C399.336 240.036 399.237 240.672 399.038 241.258C398.838 241.844 398.548 242.356 398.167 242.796C397.792 243.229 397.338 243.569 396.805 243.815C396.278 244.056 395.68 244.176 395.012 244.176C394.344 244.176 393.744 244.056 393.21 243.815C392.677 243.569 392.22 243.229 391.839 242.796C391.464 242.356 391.177 241.844 390.978 241.258C390.779 240.672 390.679 240.036 390.679 239.351ZM392.305 239.148V239.351C392.305 239.825 392.361 240.273 392.472 240.695C392.583 241.111 392.75 241.48 392.973 241.803C393.202 242.125 393.486 242.38 393.826 242.567C394.166 242.749 394.561 242.84 395.012 242.84C395.458 242.84 395.847 242.749 396.181 242.567C396.521 242.38 396.802 242.125 397.025 241.803C397.248 241.48 397.415 241.111 397.526 240.695C397.643 240.273 397.702 239.825 397.702 239.351V239.148C397.702 238.68 397.643 238.237 397.526 237.821C397.415 237.399 397.245 237.027 397.016 236.705C396.793 236.377 396.512 236.119 396.172 235.932C395.838 235.744 395.446 235.65 394.995 235.65C394.549 235.65 394.157 235.744 393.817 235.932C393.483 236.119 393.202 236.377 392.973 236.705C392.75 237.027 392.583 237.399 392.472 237.821C392.361 238.237 392.305 238.68 392.305 239.148ZM403.001 236.318V247.656H401.367V234.49H402.861L403.001 236.318ZM409.409 239.166V239.351C409.409 240.042 409.327 240.684 409.163 241.275C408.999 241.861 408.758 242.371 408.442 242.805C408.131 243.238 407.748 243.575 407.291 243.815C406.833 244.056 406.309 244.176 405.717 244.176C405.114 244.176 404.581 244.076 404.118 243.877C403.655 243.678 403.262 243.388 402.94 243.007C402.618 242.626 402.36 242.169 402.167 241.636C401.979 241.103 401.85 240.502 401.78 239.834V238.85C401.85 238.146 401.982 237.517 402.175 236.96C402.369 236.403 402.624 235.929 402.94 235.536C403.262 235.138 403.652 234.836 404.109 234.631C404.566 234.42 405.093 234.314 405.691 234.314C406.289 234.314 406.819 234.432 407.282 234.666C407.745 234.895 408.134 235.223 408.451 235.65C408.767 236.078 409.004 236.591 409.163 237.188C409.327 237.78 409.409 238.439 409.409 239.166ZM407.774 239.351V239.166C407.774 238.691 407.724 238.246 407.625 237.83C407.525 237.408 407.37 237.039 407.159 236.723C406.954 236.4 406.69 236.148 406.368 235.967C406.045 235.779 405.662 235.686 405.216 235.686C404.806 235.686 404.449 235.756 404.144 235.896C403.845 236.037 403.59 236.228 403.379 236.468C403.168 236.702 402.996 236.972 402.861 237.276C402.732 237.575 402.635 237.886 402.571 238.208V240.484C402.688 240.895 402.852 241.281 403.063 241.645C403.274 242.002 403.555 242.292 403.907 242.515C404.258 242.731 404.701 242.84 405.234 242.84C405.673 242.84 406.051 242.749 406.368 242.567C406.69 242.38 406.954 242.125 407.159 241.803C407.37 241.48 407.525 241.111 407.625 240.695C407.724 240.273 407.774 239.825 407.774 239.351ZM415.464 234.49V235.738H410.323V234.49H415.464ZM412.063 232.179H413.689V241.645C413.689 241.967 413.739 242.21 413.838 242.374C413.938 242.538 414.067 242.646 414.225 242.699C414.383 242.752 414.553 242.778 414.735 242.778C414.87 242.778 415.01 242.767 415.157 242.743C415.309 242.714 415.423 242.69 415.5 242.673L415.508 244C415.379 244.041 415.209 244.079 414.999 244.114C414.793 244.155 414.544 244.176 414.251 244.176C413.853 244.176 413.487 244.097 413.153 243.938C412.819 243.78 412.552 243.517 412.353 243.147C412.16 242.772 412.063 242.269 412.063 241.636V232.179ZM419.138 234.49V244H417.503V234.49H419.138ZM417.38 231.968C417.38 231.704 417.459 231.481 417.618 231.3C417.782 231.118 418.022 231.027 418.338 231.027C418.649 231.027 418.886 231.118 419.05 231.3C419.22 231.481 419.305 231.704 419.305 231.968C419.305 232.22 419.22 232.437 419.05 232.618C418.886 232.794 418.649 232.882 418.338 232.882C418.022 232.882 417.782 232.794 417.618 232.618C417.459 232.437 417.38 232.22 417.38 231.968ZM421.318 239.351V239.148C421.318 238.463 421.417 237.827 421.617 237.241C421.816 236.649 422.103 236.137 422.478 235.703C422.853 235.264 423.307 234.924 423.84 234.684C424.374 234.438 424.971 234.314 425.633 234.314C426.301 234.314 426.902 234.438 427.435 234.684C427.974 234.924 428.431 235.264 428.806 235.703C429.187 236.137 429.477 236.649 429.676 237.241C429.875 237.827 429.975 238.463 429.975 239.148V239.351C429.975 240.036 429.875 240.672 429.676 241.258C429.477 241.844 429.187 242.356 428.806 242.796C428.431 243.229 427.977 243.569 427.444 243.815C426.917 244.056 426.319 244.176 425.651 244.176C424.983 244.176 424.382 244.056 423.849 243.815C423.316 243.569 422.859 243.229 422.478 242.796C422.103 242.356 421.816 241.844 421.617 241.258C421.417 240.672 421.318 240.036 421.318 239.351ZM422.944 239.148V239.351C422.944 239.825 423 240.273 423.111 240.695C423.222 241.111 423.389 241.48 423.612 241.803C423.84 242.125 424.125 242.38 424.464 242.567C424.804 242.749 425.2 242.84 425.651 242.84C426.096 242.84 426.486 242.749 426.82 242.567C427.16 242.38 427.441 242.125 427.664 241.803C427.886 241.48 428.053 241.111 428.165 240.695C428.282 240.273 428.34 239.825 428.34 239.351V239.148C428.34 238.68 428.282 238.237 428.165 237.821C428.053 237.399 427.883 237.027 427.655 236.705C427.432 236.377 427.151 236.119 426.811 235.932C426.477 235.744 426.084 235.65 425.633 235.65C425.188 235.65 424.795 235.744 424.456 235.932C424.122 236.119 423.84 236.377 423.612 236.705C423.389 237.027 423.222 237.399 423.111 237.821C423 238.237 422.944 238.68 422.944 239.148ZM433.64 236.521V244H432.014V234.49H433.552L433.64 236.521ZM433.253 238.885L432.577 238.858C432.583 238.208 432.679 237.607 432.867 237.057C433.054 236.5 433.318 236.017 433.658 235.606C433.998 235.196 434.402 234.88 434.871 234.657C435.345 234.429 435.87 234.314 436.444 234.314C436.913 234.314 437.334 234.379 437.709 234.508C438.084 234.631 438.404 234.83 438.667 235.105C438.937 235.381 439.142 235.738 439.283 236.178C439.423 236.611 439.494 237.142 439.494 237.769V244H437.859V237.751C437.859 237.253 437.786 236.854 437.639 236.556C437.493 236.251 437.279 236.031 436.998 235.896C436.716 235.756 436.371 235.686 435.96 235.686C435.556 235.686 435.187 235.771 434.853 235.94C434.525 236.11 434.241 236.345 434 236.644C433.766 236.942 433.582 237.285 433.447 237.672C433.318 238.053 433.253 238.457 433.253 238.885ZM454.637 242.664V244H446.261V242.831L450.454 238.164C450.969 237.59 451.368 237.104 451.649 236.705C451.936 236.301 452.135 235.94 452.247 235.624C452.364 235.302 452.422 234.974 452.422 234.64C452.422 234.218 452.334 233.837 452.159 233.497C451.989 233.151 451.737 232.876 451.403 232.671C451.069 232.466 450.665 232.363 450.19 232.363C449.622 232.363 449.147 232.475 448.766 232.697C448.391 232.914 448.11 233.219 447.922 233.611C447.735 234.004 447.641 234.455 447.641 234.965H446.015C446.015 234.244 446.173 233.585 446.49 232.987C446.806 232.39 447.275 231.915 447.896 231.563C448.517 231.206 449.282 231.027 450.19 231.027C450.999 231.027 451.69 231.171 452.264 231.458C452.838 231.739 453.278 232.138 453.583 232.653C453.893 233.163 454.048 233.761 454.048 234.446C454.048 234.821 453.984 235.202 453.855 235.589C453.732 235.97 453.559 236.351 453.336 236.731C453.12 237.112 452.865 237.487 452.572 237.856C452.285 238.226 451.977 238.589 451.649 238.946L448.221 242.664H454.637Z" fill="#8794BA"/>
<path d="M146.484 4.42188V13H145.4V5.77539L143.214 6.57227V5.59375L146.314 4.42188H146.484ZM155.05 10.6914C155.05 11.2109 154.929 11.6523 154.687 12.0156C154.449 12.375 154.125 12.6484 153.714 12.8359C153.308 13.0234 152.849 13.1172 152.337 13.1172C151.826 13.1172 151.365 13.0234 150.955 12.8359C150.544 12.6484 150.22 12.375 149.982 12.0156C149.744 11.6523 149.625 11.2109 149.625 10.6914C149.625 10.3516 149.689 10.041 149.818 9.75977C149.951 9.47461 150.136 9.22656 150.375 9.01562C150.617 8.80469 150.902 8.64258 151.23 8.5293C151.562 8.41211 151.927 8.35352 152.326 8.35352C152.849 8.35352 153.316 8.45508 153.726 8.6582C154.136 8.85742 154.458 9.13281 154.693 9.48438C154.931 9.83594 155.05 10.2383 155.05 10.6914ZM153.96 10.668C153.96 10.3516 153.892 10.0723 153.755 9.83008C153.619 9.58398 153.427 9.39258 153.181 9.25586C152.935 9.11914 152.65 9.05078 152.326 9.05078C151.994 9.05078 151.707 9.11914 151.464 9.25586C151.226 9.39258 151.041 9.58398 150.908 9.83008C150.775 10.0723 150.708 10.3516 150.708 10.668C150.708 10.9961 150.773 11.2773 150.902 11.5117C151.035 11.7422 151.222 11.9199 151.464 12.0449C151.71 12.166 152.001 12.2266 152.337 12.2266C152.673 12.2266 152.962 12.166 153.205 12.0449C153.447 11.9199 153.632 11.7422 153.761 11.5117C153.894 11.2773 153.96 10.9961 153.96 10.668ZM154.851 6.68945C154.851 7.10352 154.742 7.47656 154.523 7.80859C154.304 8.14062 154.005 8.40234 153.626 8.59375C153.248 8.78516 152.818 8.88086 152.337 8.88086C151.849 8.88086 151.414 8.78516 151.031 8.59375C150.652 8.40234 150.355 8.14062 150.14 7.80859C149.925 7.47656 149.818 7.10352 149.818 6.68945C149.818 6.19336 149.925 5.77148 150.14 5.42383C150.359 5.07617 150.658 4.81055 151.037 4.62695C151.416 4.44336 151.847 4.35156 152.332 4.35156C152.82 4.35156 153.253 4.44336 153.632 4.62695C154.011 4.81055 154.308 5.07617 154.523 5.42383C154.742 5.77148 154.851 6.19336 154.851 6.68945ZM153.767 6.70703C153.767 6.42188 153.707 6.16992 153.585 5.95117C153.464 5.73242 153.296 5.56055 153.082 5.43555C152.867 5.30664 152.617 5.24219 152.332 5.24219C152.046 5.24219 151.796 5.30273 151.582 5.42383C151.371 5.54102 151.205 5.70898 151.083 5.92773C150.966 6.14648 150.908 6.40625 150.908 6.70703C150.908 7 150.966 7.25586 151.083 7.47461C151.205 7.69336 151.373 7.86328 151.587 7.98438C151.802 8.10547 152.052 8.16602 152.337 8.16602C152.623 8.16602 152.871 8.10547 153.082 7.98438C153.296 7.86328 153.464 7.69336 153.585 7.47461C153.707 7.25586 153.767 7 153.767 6.70703ZM158.794 8.92773V9.81836H155.935V8.92773H158.794ZM165.328 12.1094V13H159.744V12.2207L162.539 9.10938C162.882 8.72656 163.148 8.40234 163.335 8.13672C163.527 7.86719 163.66 7.62695 163.734 7.41602C163.812 7.20117 163.851 6.98242 163.851 6.75977C163.851 6.47852 163.792 6.22461 163.675 5.99805C163.562 5.76758 163.394 5.58398 163.171 5.44727C162.949 5.31055 162.679 5.24219 162.363 5.24219C161.984 5.24219 161.667 5.31641 161.414 5.46484C161.164 5.60938 160.976 5.8125 160.851 6.07422C160.726 6.33594 160.664 6.63672 160.664 6.97656H159.58C159.58 6.49609 159.685 6.05664 159.896 5.6582C160.107 5.25977 160.419 4.94336 160.833 4.70898C161.248 4.4707 161.757 4.35156 162.363 4.35156C162.902 4.35156 163.363 4.44727 163.746 4.63867C164.128 4.82617 164.421 5.0918 164.625 5.43555C164.832 5.77539 164.935 6.17383 164.935 6.63086C164.935 6.88086 164.892 7.13477 164.806 7.39258C164.724 7.64648 164.609 7.90039 164.46 8.1543C164.316 8.4082 164.146 8.6582 163.951 8.9043C163.759 9.15039 163.554 9.39258 163.335 9.63086L161.05 12.1094H165.328ZM172.253 10.1289V11.0195H166.089V10.3809L169.91 4.46875H170.794L169.845 6.17969L167.32 10.1289H172.253ZM171.064 4.46875V13H169.98V4.46875H171.064Z" fill="#8794BA"/>
<path d="M289.511 90.1094V91H283.927V90.2207L286.722 87.1094C287.066 86.7266 287.332 86.4023 287.519 86.1367C287.71 85.8672 287.843 85.627 287.917 85.416C287.996 85.2012 288.035 84.9824 288.035 84.7598C288.035 84.4785 287.976 84.2246 287.859 83.998C287.746 83.7676 287.578 83.584 287.355 83.4473C287.132 83.3105 286.863 83.2422 286.546 83.2422C286.167 83.2422 285.851 83.3164 285.597 83.4648C285.347 83.6094 285.16 83.8125 285.035 84.0742C284.91 84.3359 284.847 84.6367 284.847 84.9766H283.763C283.763 84.4961 283.869 84.0566 284.08 83.6582C284.291 83.2598 284.603 82.9434 285.017 82.709C285.431 82.4707 285.941 82.3516 286.546 82.3516C287.085 82.3516 287.546 82.4473 287.929 82.6387C288.312 82.8262 288.605 83.0918 288.808 83.4355C289.015 83.7754 289.119 84.1738 289.119 84.6309C289.119 84.8809 289.076 85.1348 288.99 85.3926C288.908 85.6465 288.792 85.9004 288.644 86.1543C288.5 86.4082 288.33 86.6582 288.134 86.9043C287.943 87.1504 287.738 87.3926 287.519 87.6309L285.234 90.1094H289.511ZM292.042 86.9395L291.175 86.7168L291.603 82.4688H295.98V83.4707H292.523L292.265 85.791C292.421 85.7012 292.619 85.6172 292.857 85.5391C293.099 85.4609 293.376 85.4219 293.689 85.4219C294.083 85.4219 294.437 85.4902 294.75 85.627C295.062 85.7598 295.328 85.9512 295.546 86.2012C295.769 86.4512 295.939 86.752 296.056 87.1035C296.173 87.4551 296.232 87.8477 296.232 88.2812C296.232 88.6914 296.175 89.0684 296.062 89.4121C295.953 89.7559 295.787 90.0566 295.564 90.3145C295.341 90.5684 295.06 90.7656 294.72 90.9062C294.384 91.0469 293.988 91.1172 293.531 91.1172C293.187 91.1172 292.861 91.0703 292.552 90.9766C292.248 90.8789 291.974 90.7324 291.732 90.5371C291.494 90.3379 291.298 90.0918 291.146 89.7988C290.998 89.502 290.904 89.1543 290.865 88.7559H291.896C291.943 89.0762 292.037 89.3457 292.177 89.5645C292.318 89.7832 292.501 89.9492 292.728 90.0625C292.958 90.1719 293.226 90.2266 293.531 90.2266C293.789 90.2266 294.017 90.1816 294.216 90.0918C294.416 90.002 294.583 89.873 294.72 89.7051C294.857 89.5371 294.96 89.334 295.031 89.0957C295.105 88.8574 295.142 88.5898 295.142 88.293C295.142 88.0234 295.105 87.7734 295.031 87.543C294.957 87.3125 294.845 87.1113 294.697 86.9395C294.552 86.7676 294.375 86.6348 294.164 86.541C293.953 86.4434 293.71 86.3945 293.437 86.3945C293.074 86.3945 292.798 86.4434 292.611 86.541C292.427 86.6387 292.238 86.7715 292.042 86.9395ZM299.794 86.9277V87.8184H296.935V86.9277H299.794ZM302.32 86.2012H303.093C303.472 86.2012 303.785 86.1387 304.031 86.0137C304.281 85.8848 304.466 85.7109 304.587 85.4922C304.712 85.2695 304.775 85.0195 304.775 84.7422C304.775 84.4141 304.72 84.1387 304.611 83.916C304.501 83.6934 304.337 83.5254 304.119 83.4121C303.9 83.2988 303.623 83.2422 303.287 83.2422C302.982 83.2422 302.712 83.3027 302.478 83.4238C302.248 83.541 302.066 83.709 301.933 83.9277C301.804 84.1465 301.74 84.4043 301.74 84.7012H300.656C300.656 84.2676 300.765 83.873 300.984 83.5176C301.203 83.1621 301.509 82.8789 301.904 82.668C302.302 82.457 302.763 82.3516 303.287 82.3516C303.802 82.3516 304.253 82.4434 304.64 82.627C305.027 82.8066 305.328 83.0762 305.542 83.4355C305.757 83.791 305.865 84.2344 305.865 84.7656C305.865 84.9805 305.814 85.2109 305.712 85.457C305.615 85.6992 305.46 85.9258 305.25 86.1367C305.042 86.3477 304.773 86.5215 304.441 86.6582C304.109 86.791 303.71 86.8574 303.246 86.8574H302.32V86.2012ZM302.32 87.0918V86.4414H303.246C303.789 86.4414 304.238 86.5059 304.593 86.6348C304.949 86.7637 305.228 86.9355 305.431 87.1504C305.638 87.3652 305.783 87.6016 305.865 87.8594C305.951 88.1133 305.994 88.3672 305.994 88.6211C305.994 89.0195 305.925 89.373 305.789 89.6816C305.656 89.9902 305.466 90.252 305.22 90.4668C304.978 90.6816 304.693 90.8438 304.365 90.9531C304.037 91.0625 303.679 91.1172 303.292 91.1172C302.921 91.1172 302.572 91.0645 302.244 90.959C301.919 90.8535 301.632 90.7012 301.382 90.502C301.132 90.2988 300.937 90.0508 300.796 89.7578C300.656 89.4609 300.585 89.123 300.585 88.7441H301.669C301.669 89.041 301.734 89.3008 301.863 89.5234C301.996 89.7461 302.183 89.9199 302.425 90.0449C302.671 90.166 302.96 90.2266 303.292 90.2266C303.625 90.2266 303.91 90.1699 304.148 90.0566C304.39 89.9395 304.576 89.7637 304.705 89.5293C304.837 89.2949 304.904 89 304.904 88.6445C304.904 88.2891 304.83 87.998 304.681 87.7715C304.533 87.541 304.322 87.3711 304.048 87.2617C303.779 87.1484 303.46 87.0918 303.093 87.0918H302.32ZM313.253 88.1289V89.0195H307.089V88.3809L310.91 82.4688H311.794L310.845 84.1797L308.32 88.1289H313.253ZM312.064 82.4688V91H310.98V82.4688H312.064Z" fill="#8794BA"/>
<path d="M285.503 217.201H286.277C286.656 217.201 286.968 217.139 287.214 217.014C287.464 216.885 287.65 216.711 287.771 216.492C287.896 216.27 287.958 216.02 287.958 215.742C287.958 215.414 287.904 215.139 287.794 214.916C287.685 214.693 287.521 214.525 287.302 214.412C287.083 214.299 286.806 214.242 286.47 214.242C286.166 214.242 285.896 214.303 285.662 214.424C285.431 214.541 285.25 214.709 285.117 214.928C284.988 215.146 284.923 215.404 284.923 215.701H283.839C283.839 215.268 283.949 214.873 284.167 214.518C284.386 214.162 284.693 213.879 285.087 213.668C285.486 213.457 285.947 213.352 286.47 213.352C286.986 213.352 287.437 213.443 287.824 213.627C288.21 213.807 288.511 214.076 288.726 214.436C288.941 214.791 289.048 215.234 289.048 215.766C289.048 215.98 288.998 216.211 288.896 216.457C288.798 216.699 288.644 216.926 288.433 217.137C288.226 217.348 287.957 217.521 287.625 217.658C287.292 217.791 286.894 217.857 286.429 217.857H285.503V217.201ZM285.503 218.092V217.441H286.429C286.972 217.441 287.421 217.506 287.777 217.635C288.132 217.764 288.412 217.936 288.615 218.15C288.822 218.365 288.966 218.602 289.048 218.859C289.134 219.113 289.177 219.367 289.177 219.621C289.177 220.02 289.109 220.373 288.972 220.682C288.839 220.99 288.65 221.252 288.404 221.467C288.162 221.682 287.876 221.844 287.548 221.953C287.22 222.062 286.863 222.117 286.476 222.117C286.105 222.117 285.755 222.064 285.427 221.959C285.103 221.854 284.816 221.701 284.566 221.502C284.316 221.299 284.121 221.051 283.98 220.758C283.839 220.461 283.769 220.123 283.769 219.744H284.853C284.853 220.041 284.917 220.301 285.046 220.523C285.179 220.746 285.367 220.92 285.609 221.045C285.855 221.166 286.144 221.227 286.476 221.227C286.808 221.227 287.093 221.17 287.332 221.057C287.574 220.939 287.759 220.764 287.888 220.529C288.021 220.295 288.087 220 288.087 219.645C288.087 219.289 288.013 218.998 287.865 218.771C287.716 218.541 287.505 218.371 287.232 218.262C286.962 218.148 286.644 218.092 286.277 218.092H285.503ZM292.042 217.939L291.175 217.717L291.603 213.469H295.98V214.471H292.523L292.265 216.791C292.421 216.701 292.619 216.617 292.857 216.539C293.099 216.461 293.376 216.422 293.689 216.422C294.083 216.422 294.437 216.49 294.75 216.627C295.062 216.76 295.328 216.951 295.546 217.201C295.769 217.451 295.939 217.752 296.056 218.104C296.173 218.455 296.232 218.848 296.232 219.281C296.232 219.691 296.175 220.068 296.062 220.412C295.953 220.756 295.787 221.057 295.564 221.314C295.341 221.568 295.06 221.766 294.72 221.906C294.384 222.047 293.988 222.117 293.531 222.117C293.187 222.117 292.861 222.07 292.552 221.977C292.248 221.879 291.974 221.732 291.732 221.537C291.494 221.338 291.298 221.092 291.146 220.799C290.998 220.502 290.904 220.154 290.865 219.756H291.896C291.943 220.076 292.037 220.346 292.177 220.564C292.318 220.783 292.501 220.949 292.728 221.062C292.958 221.172 293.226 221.227 293.531 221.227C293.789 221.227 294.017 221.182 294.216 221.092C294.416 221.002 294.583 220.873 294.72 220.705C294.857 220.537 294.96 220.334 295.031 220.096C295.105 219.857 295.142 219.59 295.142 219.293C295.142 219.023 295.105 218.773 295.031 218.543C294.957 218.312 294.845 218.111 294.697 217.939C294.552 217.768 294.375 217.635 294.164 217.541C293.953 217.443 293.71 217.395 293.437 217.395C293.074 217.395 292.798 217.443 292.611 217.541C292.427 217.639 292.238 217.771 292.042 217.939ZM299.794 217.928V218.818H296.935V217.928H299.794ZM306.503 219.129V220.02H300.339V219.381L304.16 213.469H305.044L304.095 215.18L301.57 219.129H306.503ZM305.314 213.469V222H304.23V213.469H305.314ZM313.253 219.129V220.02H307.089V219.381L310.91 213.469H311.794L310.845 215.18L308.32 219.129H313.253ZM312.064 213.469V222H310.98V213.469H312.064Z" fill="#8794BA"/>
<path d="M148.687 304.129V305.02H142.523V304.381L146.343 298.469H147.228L146.279 300.18L143.753 304.129H148.687ZM147.498 298.469V307H146.414V298.469H147.498ZM151.042 302.939L150.175 302.717L150.603 298.469H154.98V299.471H151.523L151.265 301.791C151.421 301.701 151.619 301.617 151.857 301.539C152.099 301.461 152.376 301.422 152.689 301.422C153.083 301.422 153.437 301.49 153.75 301.627C154.062 301.76 154.328 301.951 154.546 302.201C154.769 302.451 154.939 302.752 155.056 303.104C155.173 303.455 155.232 303.848 155.232 304.281C155.232 304.691 155.175 305.068 155.062 305.412C154.953 305.756 154.787 306.057 154.564 306.314C154.341 306.568 154.06 306.766 153.72 306.906C153.384 307.047 152.988 307.117 152.531 307.117C152.187 307.117 151.861 307.07 151.552 306.977C151.248 306.879 150.974 306.732 150.732 306.537C150.494 306.338 150.298 306.092 150.146 305.799C149.998 305.502 149.904 305.154 149.865 304.756H150.896C150.943 305.076 151.037 305.346 151.177 305.564C151.318 305.783 151.501 305.949 151.728 306.062C151.958 306.172 152.226 306.227 152.531 306.227C152.789 306.227 153.017 306.182 153.216 306.092C153.416 306.002 153.583 305.873 153.72 305.705C153.857 305.537 153.96 305.334 154.031 305.096C154.105 304.857 154.142 304.59 154.142 304.293C154.142 304.023 154.105 303.773 154.031 303.543C153.957 303.312 153.845 303.111 153.697 302.939C153.552 302.768 153.375 302.635 153.164 302.541C152.953 302.443 152.71 302.395 152.437 302.395C152.074 302.395 151.798 302.443 151.611 302.541C151.427 302.639 151.238 302.771 151.042 302.939ZM158.794 302.928V303.818H155.935V302.928H158.794ZM161.109 302.939L160.242 302.717L160.669 298.469H165.046V299.471H161.589L161.332 301.791C161.488 301.701 161.685 301.617 161.923 301.539C162.166 301.461 162.443 301.422 162.755 301.422C163.15 301.422 163.503 301.49 163.816 301.627C164.128 301.76 164.394 301.951 164.613 302.201C164.835 302.451 165.005 302.752 165.123 303.104C165.24 303.455 165.298 303.848 165.298 304.281C165.298 304.691 165.242 305.068 165.128 305.412C165.019 305.756 164.853 306.057 164.63 306.314C164.408 306.568 164.126 306.766 163.787 306.906C163.451 307.047 163.054 307.117 162.597 307.117C162.253 307.117 161.927 307.07 161.619 306.977C161.314 306.879 161.041 306.732 160.798 306.537C160.56 306.338 160.365 306.092 160.212 305.799C160.064 305.502 159.97 305.154 159.931 304.756H160.962C161.009 305.076 161.103 305.346 161.244 305.564C161.384 305.783 161.568 305.949 161.794 306.062C162.025 306.172 162.292 306.227 162.597 306.227C162.855 306.227 163.083 306.182 163.283 306.092C163.482 306.002 163.65 305.873 163.787 305.705C163.923 305.537 164.027 305.334 164.097 305.096C164.171 304.857 164.208 304.59 164.208 304.293C164.208 304.023 164.171 303.773 164.097 303.543C164.023 303.312 163.912 303.111 163.763 302.939C163.619 302.768 163.441 302.635 163.23 302.541C163.019 302.443 162.777 302.395 162.503 302.395C162.14 302.395 161.865 302.443 161.677 302.541C161.494 302.639 161.304 302.771 161.109 302.939ZM172.253 304.129V305.02H166.089V304.381L169.91 298.469H170.794L169.845 300.18L167.32 304.129H172.253ZM171.064 298.469V307H169.98V298.469H171.064Z" fill="#8794BA"/>
<path d="M3.29248 217.939L2.42529 217.717L2.85303 213.469H7.22998V214.471H3.77295L3.51514 216.791C3.67139 216.701 3.86865 216.617 4.10693 216.539C4.34912 216.461 4.62646 216.422 4.93896 216.422C5.3335 216.422 5.68701 216.49 5.99951 216.627C6.31201 216.76 6.57764 216.951 6.79639 217.201C7.01904 217.451 7.18896 217.752 7.30615 218.104C7.42334 218.455 7.48193 218.848 7.48193 219.281C7.48193 219.691 7.42529 220.068 7.31201 220.412C7.20264 220.756 7.03662 221.057 6.81396 221.314C6.59131 221.568 6.31006 221.766 5.97021 221.906C5.63428 222.047 5.23779 222.117 4.78076 222.117C4.43701 222.117 4.11084 222.07 3.80225 221.977C3.49756 221.879 3.22412 221.732 2.98193 221.537C2.74365 221.338 2.54834 221.092 2.396 220.799C2.24756 220.502 2.15381 220.154 2.11475 219.756H3.146C3.19287 220.076 3.28662 220.346 3.42725 220.564C3.56787 220.783 3.75146 220.949 3.97803 221.062C4.2085 221.172 4.47607 221.227 4.78076 221.227C5.03857 221.227 5.26709 221.182 5.46631 221.092C5.66553 221.002 5.8335 220.873 5.97021 220.705C6.10693 220.537 6.21045 220.334 6.28076 220.096C6.35498 219.857 6.39209 219.59 6.39209 219.293C6.39209 219.023 6.35498 218.773 6.28076 218.543C6.20654 218.312 6.09521 218.111 5.94678 217.939C5.80225 217.768 5.62451 217.635 5.41357 217.541C5.20264 217.443 4.96045 217.395 4.68701 217.395C4.32373 217.395 4.04834 217.443 3.86084 217.541C3.67725 217.639 3.48779 217.771 3.29248 217.939ZM10.0425 217.939L9.17529 217.717L9.60303 213.469H13.98V214.471H10.5229L10.2651 216.791C10.4214 216.701 10.6187 216.617 10.8569 216.539C11.0991 216.461 11.3765 216.422 11.689 216.422C12.0835 216.422 12.437 216.49 12.7495 216.627C13.062 216.76 13.3276 216.951 13.5464 217.201C13.769 217.451 13.939 217.752 14.0562 218.104C14.1733 218.455 14.2319 218.848 14.2319 219.281C14.2319 219.691 14.1753 220.068 14.062 220.412C13.9526 220.756 13.7866 221.057 13.564 221.314C13.3413 221.568 13.0601 221.766 12.7202 221.906C12.3843 222.047 11.9878 222.117 11.5308 222.117C11.187 222.117 10.8608 222.07 10.5522 221.977C10.2476 221.879 9.97412 221.732 9.73193 221.537C9.49365 221.338 9.29834 221.092 9.146 220.799C8.99756 220.502 8.90381 220.154 8.86475 219.756H9.896C9.94287 220.076 10.0366 220.346 10.1772 220.564C10.3179 220.783 10.5015 220.949 10.728 221.062C10.9585 221.172 11.2261 221.227 11.5308 221.227C11.7886 221.227 12.0171 221.182 12.2163 221.092C12.4155 221.002 12.5835 220.873 12.7202 220.705C12.8569 220.537 12.9604 220.334 13.0308 220.096C13.105 219.857 13.1421 219.59 13.1421 219.293C13.1421 219.023 13.105 218.773 13.0308 218.543C12.9565 218.312 12.8452 218.111 12.6968 217.939C12.5522 217.768 12.3745 217.635 12.1636 217.541C11.9526 217.443 11.7104 217.395 11.437 217.395C11.0737 217.395 10.7983 217.443 10.6108 217.541C10.4272 217.639 10.2378 217.771 10.0425 217.939ZM17.7944 217.928V218.818H14.9351V217.928H17.7944ZM22.8979 213.457H22.9917V214.377H22.8979C22.3237 214.377 21.8433 214.471 21.4565 214.658C21.0698 214.842 20.7632 215.09 20.5366 215.402C20.3101 215.711 20.146 216.059 20.0444 216.445C19.9468 216.832 19.8979 217.225 19.8979 217.623V218.877C19.8979 219.256 19.9429 219.592 20.0327 219.885C20.1226 220.174 20.2456 220.418 20.4019 220.617C20.5581 220.816 20.7339 220.967 20.9292 221.068C21.1284 221.17 21.3354 221.221 21.5503 221.221C21.8003 221.221 22.0229 221.174 22.2183 221.08C22.4136 220.982 22.5776 220.848 22.7104 220.676C22.8472 220.5 22.9507 220.293 23.021 220.055C23.0913 219.816 23.1265 219.555 23.1265 219.27C23.1265 219.016 23.0952 218.771 23.0327 218.537C22.9702 218.299 22.8745 218.088 22.7456 217.904C22.6167 217.717 22.4546 217.57 22.2593 217.465C22.0679 217.355 21.8394 217.301 21.5737 217.301C21.2729 217.301 20.9917 217.375 20.73 217.523C20.4722 217.668 20.2593 217.859 20.0913 218.098C19.9272 218.332 19.8335 218.588 19.8101 218.865L19.2358 218.859C19.2905 218.422 19.3921 218.049 19.5405 217.74C19.6929 217.428 19.8804 217.174 20.103 216.979C20.3296 216.779 20.5815 216.635 20.8589 216.545C21.1401 216.451 21.437 216.404 21.7495 216.404C22.1753 216.404 22.5425 216.484 22.8511 216.645C23.1597 216.805 23.4136 217.02 23.6128 217.289C23.812 217.555 23.9585 217.855 24.0522 218.191C24.1499 218.523 24.1987 218.865 24.1987 219.217C24.1987 219.619 24.1421 219.996 24.0288 220.348C23.9155 220.699 23.7456 221.008 23.519 221.273C23.2964 221.539 23.021 221.746 22.6929 221.895C22.3647 222.043 21.9839 222.117 21.5503 222.117C21.0894 222.117 20.687 222.023 20.3433 221.836C19.9995 221.645 19.7144 221.391 19.4878 221.074C19.2612 220.758 19.0913 220.406 18.978 220.02C18.8647 219.633 18.8081 219.24 18.8081 218.842V218.332C18.8081 217.73 18.8687 217.141 18.9897 216.562C19.1108 215.984 19.3198 215.461 19.6167 214.992C19.9175 214.523 20.3335 214.15 20.8647 213.873C21.396 213.596 22.0737 213.457 22.8979 213.457ZM31.2534 219.129V220.02H25.0894V219.381L28.9097 213.469H29.7944L28.8452 215.18L26.3198 219.129H31.2534ZM30.064 213.469V222H28.98V213.469H30.064Z" fill="#8794BA"/>
<path d="M11.0854 82.457H11.1792V83.377H11.0854C10.5112 83.377 10.0308 83.4707 9.64404 83.6582C9.25732 83.8418 8.95068 84.0898 8.72412 84.4023C8.49756 84.7109 8.3335 85.0586 8.23193 85.4453C8.13428 85.832 8.08545 86.2246 8.08545 86.623V87.877C8.08545 88.2559 8.13037 88.5918 8.22021 88.8848C8.31006 89.1738 8.43311 89.418 8.58936 89.6172C8.74561 89.8164 8.92139 89.9668 9.1167 90.0684C9.31592 90.1699 9.52295 90.2207 9.73779 90.2207C9.98779 90.2207 10.2104 90.1738 10.4058 90.0801C10.6011 89.9824 10.7651 89.8477 10.8979 89.6758C11.0347 89.5 11.1382 89.293 11.2085 89.0547C11.2788 88.8164 11.314 88.5547 11.314 88.2695C11.314 88.0156 11.2827 87.7715 11.2202 87.5371C11.1577 87.2988 11.062 87.0879 10.9331 86.9043C10.8042 86.7168 10.6421 86.5703 10.4468 86.4648C10.2554 86.3555 10.0269 86.3008 9.76123 86.3008C9.46045 86.3008 9.1792 86.375 8.91748 86.5234C8.65967 86.668 8.44678 86.8594 8.27881 87.0977C8.11475 87.332 8.021 87.5879 7.99756 87.8652L7.42334 87.8594C7.47803 87.4219 7.57959 87.0488 7.72803 86.7402C7.88037 86.4277 8.06787 86.1738 8.29053 85.9785C8.51709 85.7793 8.76904 85.6348 9.04639 85.5449C9.32764 85.4512 9.62451 85.4043 9.93701 85.4043C10.3628 85.4043 10.73 85.4844 11.0386 85.6445C11.3472 85.8047 11.6011 86.0195 11.8003 86.2891C11.9995 86.5547 12.146 86.8555 12.2397 87.1914C12.3374 87.5234 12.3862 87.8652 12.3862 88.2168C12.3862 88.6191 12.3296 88.9961 12.2163 89.3477C12.103 89.6992 11.9331 90.0078 11.7065 90.2734C11.4839 90.5391 11.2085 90.7461 10.8804 90.8945C10.5522 91.043 10.1714 91.1172 9.73779 91.1172C9.27686 91.1172 8.87451 91.0234 8.53076 90.8359C8.18701 90.6445 7.90186 90.3906 7.67529 90.0742C7.44873 89.7578 7.27881 89.4062 7.16553 89.0195C7.05225 88.6328 6.99561 88.2402 6.99561 87.8418V87.332C6.99561 86.7305 7.05615 86.1406 7.17725 85.5625C7.29834 84.9844 7.50732 84.4609 7.8042 83.9922C8.10498 83.5234 8.521 83.1504 9.05225 82.873C9.5835 82.5957 10.2612 82.457 11.0854 82.457ZM15.0464 86.9395L14.1792 86.7168L14.6069 82.4688H18.9839V83.4707H15.5269L15.269 85.791C15.4253 85.7012 15.6226 85.6172 15.8608 85.5391C16.103 85.4609 16.3804 85.4219 16.6929 85.4219C17.0874 85.4219 17.4409 85.4902 17.7534 85.627C18.0659 85.7598 18.3315 85.9512 18.5503 86.2012C18.7729 86.4512 18.9429 86.752 19.0601 87.1035C19.1772 87.4551 19.2358 87.8477 19.2358 88.2812C19.2358 88.6914 19.1792 89.0684 19.0659 89.4121C18.9565 89.7559 18.7905 90.0566 18.5679 90.3145C18.3452 90.5684 18.064 90.7656 17.7241 90.9062C17.3882 91.0469 16.9917 91.1172 16.5347 91.1172C16.1909 91.1172 15.8647 91.0703 15.5562 90.9766C15.2515 90.8789 14.978 90.7324 14.7358 90.5371C14.4976 90.3379 14.3022 90.0918 14.1499 89.7988C14.0015 89.502 13.9077 89.1543 13.8687 88.7559H14.8999C14.9468 89.0762 15.0405 89.3457 15.1812 89.5645C15.3218 89.7832 15.5054 89.9492 15.7319 90.0625C15.9624 90.1719 16.23 90.2266 16.5347 90.2266C16.7925 90.2266 17.021 90.1816 17.2202 90.0918C17.4194 90.002 17.5874 89.873 17.7241 89.7051C17.8608 89.5371 17.9644 89.334 18.0347 89.0957C18.1089 88.8574 18.146 88.5898 18.146 88.293C18.146 88.0234 18.1089 87.7734 18.0347 87.543C17.9604 87.3125 17.8491 87.1113 17.7007 86.9395C17.5562 86.7676 17.3784 86.6348 17.1675 86.541C16.9565 86.4434 16.7144 86.3945 16.4409 86.3945C16.0776 86.3945 15.8022 86.4434 15.6147 86.541C15.4312 86.6387 15.2417 86.7715 15.0464 86.9395ZM26.021 86.4238V87.4434H20.1733V86.4238H26.021ZM23.6421 83.9336V90.1445H22.5581V83.9336H23.6421Z" fill="#8794BA"/>
</svg>
